<svg xmlns="http://www.w3.org/2000/svg" version="1.1" xmlns:xlink="http://www.w3.org/1999/xlink" xmlns:svgjs="http://svgjs.dev/svgjs" width="512" height="512"><svg xmlns="http://www.w3.org/2000/svg" xmlns:xlink="http://www.w3.org/1999/xlink" width="512" zoomAndPan="magnify" viewBox="0 0 384 383.999986" height="512" preserveAspectRatio="xMidYMid meet" version="1.0"><defs><clipPath id="SvgjsClipPath1217"><path d="M 0 3.359375 L 384 3.359375 L 384 384 L 0 384 Z M 0 3.359375 " clip-rule="nonzero"></path></clipPath><clipPath id="SvgjsClipPath1216"><path d="M 0 39.359375 L 0 348 C 0 367.882812 16.117188 384 36 384 L 348 384 C 367.882812 384 384 367.882812 384 348 L 384 39.359375 C 384 19.476562 367.882812 3.359375 348 3.359375 L 36 3.359375 C 16.117188 3.359375 0 19.476562 0 39.359375 Z M 0 39.359375 " clip-rule="nonzero"></path></clipPath><clipPath id="SvgjsClipPath1215"><path d="M 48 48.0625 L 342.628906 48.0625 L 342.628906 336 L 48 336 Z M 48 48.0625 " clip-rule="nonzero"></path></clipPath></defs><g clip-path="url(#7a4600bc0f)"><g clip-path="url(#f7c91d1acf)"><path fill="#5d4fca" d="M 384 195.585938 C 384 245.175781 365.144531 292.25 330.921875 328.113281 L 328.039062 325.363281 L 326.941406 324.316406 L 323.277344 320.824219 C 355.621094 286.929688 373.4375 242.453125 373.4375 195.585938 Z M 192 3.585938 L 192 14.148438 C 240.464844 14.148438 286.03125 33.019531 320.296875 67.285156 L 323.144531 64.441406 L 327.765625 59.820312 C 291.503906 23.554688 243.285156 3.585938 192 3.585938 Z M 10.5625 195.585938 L 0 195.585938 C 0 247.351562 20.300781 295.886719 57.148438 332.253906 L 60.117188 329.25 L 61.183594 328.167969 L 64.570312 324.734375 C 29.746094 290.371094 10.5625 244.503906 10.5625 195.585938 Z M 44.609375 80.910156 C 19.128906 113.527344 5.074219 154.0625 4.902344 195.585938 L 6.410156 195.585938 C 6.582031 154.453125 20.496094 114.296875 45.691406 81.972656 C 46.460938 80.980469 47.242188 80.003906 48.03125 79.027344 L 46.859375 78.070312 C 46.097656 79.011719 45.34375 79.960938 44.609375 80.910156 Z M 150.460938 377.589844 C 116.769531 369.839844 85.738281 352.589844 61.183594 328.167969 L 60.117188 329.25 C 84.878906 353.875 116.175781 371.257812 150.140625 379.0625 C 151.570312 379.398438 153.003906 379.710938 154.441406 380.003906 L 154.742188 378.523438 C 153.308594 378.230469 151.878906 377.917969 150.460938 377.589844 Z M 91.886719 37.984375 L 92.699219 39.261719 C 93.914062 38.492188 95.148438 37.726562 96.382812 36.992188 C 125.1875 19.59375 158.148438 10.40625 192 10.371094 L 192 8.863281 C 157.910156 8.898438 124.714844 18.136719 95.707031 35.636719 C 94.421875 36.390625 93.152344 37.179688 91.886719 37.984375 Z M 243.285156 375.179688 C 241.734375 375.628906 240.164062 376.046875 238.59375 376.457031 L 238.976562 377.910156 C 240.546875 377.511719 242.097656 377.085938 243.648438 376.632812 C 275.683594 367.480469 305.019531 349.601562 328.039062 325.363281 L 326.941406 324.316406 C 304.121094 348.359375 275.050781 366.089844 243.285156 375.179688 Z M 324.617188 63.773438 C 324.484375 63.640625 324.34375 63.507812 324.210938 63.375 L 323.144531 64.441406 C 323.277344 64.5625 323.421875 64.707031 323.554688 64.839844 C 358.460938 99.789062 377.765625 146.195312 377.953125 195.585938 L 379.46875 195.585938 C 379.28125 145.789062 359.816406 99.007812 324.617188 63.773438 Z M 48.28125 73.742188 C 45.777344 73.742188 43.757812 75.773438 43.757812 78.265625 C 43.757812 80.757812 45.789062 82.789062 48.28125 82.789062 C 50.769531 82.789062 52.800781 80.757812 52.800781 78.265625 C 52.800781 75.773438 50.78125 73.742188 48.28125 73.742188 Z M 154.65625 374.761719 C 152.15625 374.761719 150.132812 376.792969 150.132812 379.285156 C 150.132812 381.785156 152.164062 383.808594 154.65625 383.808594 C 157.15625 383.808594 159.179688 381.777344 159.179688 379.285156 C 159.1875 376.785156 157.15625 374.761719 154.65625 374.761719 Z M 239.152344 372.492188 C 236.652344 372.492188 234.628906 374.523438 234.628906 377.015625 C 234.628906 379.515625 236.660156 381.535156 239.152344 381.535156 C 241.652344 381.535156 243.675781 379.507812 243.675781 377.015625 C 243.675781 374.523438 241.652344 372.492188 239.152344 372.492188 Z M 92.035156 33.753906 C 89.535156 33.753906 87.511719 35.785156 87.511719 38.277344 C 87.511719 40.769531 89.542969 42.800781 92.035156 42.800781 C 94.527344 42.800781 96.558594 40.769531 96.558594 38.277344 C 96.558594 35.785156 94.535156 33.753906 92.035156 33.753906 Z M 192.097656 368.339844 C 192.929688 368.339844 193.605469 367.65625 193.605469 366.832031 C 193.597656 366 192.921875 365.324219 192.089844 365.324219 C 191.253906 365.324219 190.582031 366.007812 190.582031 366.832031 C 190.582031 367.667969 191.265625 368.339844 192.097656 368.339844 Z M 185.304688 368.214844 C 186.113281 368.214844 186.777344 367.578125 186.8125 366.769531 C 186.839844 365.9375 186.191406 365.226562 185.367188 365.203125 C 184.53125 365.175781 183.824219 365.820312 183.796875 366.648438 C 183.769531 367.480469 184.417969 368.179688 185.242188 368.214844 C 185.269531 368.214844 185.285156 368.214844 185.304688 368.214844 Z M 198.882812 368.207031 C 198.898438 368.207031 198.925781 368.207031 198.945312 368.207031 C 199.777344 368.171875 200.425781 367.472656 200.390625 366.636719 C 200.363281 365.804688 199.652344 365.148438 198.820312 365.191406 C 197.984375 365.21875 197.339844 365.929688 197.375 366.761719 C 197.410156 367.578125 198.074219 368.207031 198.882812 368.207031 Z M 178.539062 367.816406 C 179.316406 367.816406 179.972656 367.214844 180.035156 366.425781 C 180.109375 365.589844 179.476562 364.863281 178.644531 364.792969 C 177.8125 364.730469 177.09375 365.351562 177.019531 366.1875 C 176.949219 367.019531 177.578125 367.738281 178.414062 367.808594 C 178.449219 367.816406 178.484375 367.816406 178.539062 367.816406 Z M 205.65625 367.800781 C 205.703125 367.800781 205.738281 367.800781 205.78125 367.789062 C 205.789062 367.789062 205.789062 367.789062 205.789062 367.789062 C 206.625 367.71875 207.234375 367 207.171875 366.167969 C 207.101562 365.335938 206.382812 364.722656 205.542969 364.777344 L 205.550781 364.777344 C 204.71875 364.847656 204.097656 365.574219 204.160156 366.40625 C 204.21875 367.195312 204.875 367.800781 205.65625 367.800781 Z M 171.769531 367.144531 C 172.523438 367.144531 173.179688 366.574219 173.269531 365.8125 C 173.367188 364.980469 172.773438 364.226562 171.949219 364.128906 C 171.113281 364.03125 170.371094 364.617188 170.261719 365.449219 C 170.167969 366.285156 170.761719 367.027344 171.585938 367.125 C 171.65625 367.132812 171.710938 367.144531 171.769531 367.144531 Z M 212.40625 367.125 C 212.476562 367.125 212.53125 367.117188 212.59375 367.109375 C 213.425781 367.011719 214.011719 366.257812 213.914062 365.433594 C 213.808594 364.597656 213.0625 364.011719 212.230469 364.109375 C 211.394531 364.207031 210.808594 364.960938 210.90625 365.796875 C 211.015625 366.558594 211.660156 367.125 212.40625 367.125 Z M 165.050781 366.203125 C 165.785156 366.203125 166.421875 365.671875 166.539062 364.933594 C 166.671875 364.109375 166.113281 363.339844 165.296875 363.207031 C 164.472656 363.074219 163.699219 363.640625 163.558594 364.449219 C 163.433594 365.273438 163.984375 366.042969 164.808594 366.1875 C 164.890625 366.195312 164.976562 366.203125 165.050781 366.203125 Z M 219.128906 366.167969 C 219.207031 366.167969 219.296875 366.160156 219.375 366.148438 C 220.203125 366.015625 220.761719 365.238281 220.617188 364.410156 C 220.492188 363.585938 219.714844 363.027344 218.890625 363.171875 C 218.0625 363.292969 217.503906 364.074219 217.648438 364.898438 C 217.761719 365.644531 218.402344 366.167969 219.128906 366.167969 Z M 158.371094 364.996094 C 159.070312 364.996094 159.703125 364.5 159.84375 363.78125 C 160.011719 362.964844 159.480469 362.167969 158.664062 362.007812 C 157.847656 361.839844 157.050781 362.371094 156.882812 363.1875 C 156.710938 364.003906 157.246094 364.800781 158.070312 364.96875 C 158.167969 364.980469 158.273438 364.996094 158.371094 364.996094 Z M 225.816406 364.953125 C 225.914062 364.953125 226.019531 364.933594 226.117188 364.917969 C 226.933594 364.75 227.457031 363.960938 227.296875 363.144531 C 227.128906 362.320312 226.328125 361.804688 225.511719 361.964844 C 224.699219 362.125 224.175781 362.921875 224.335938 363.738281 C 224.476562 364.457031 225.113281 364.953125 225.816406 364.953125 Z M 151.746094 363.507812 C 152.429688 363.507812 153.042969 363.046875 153.21875 362.363281 C 153.414062 361.546875 152.917969 360.730469 152.109375 360.535156 C 151.292969 360.339844 150.476562 360.828125 150.285156 361.636719 C 150.089844 362.453125 150.574219 363.269531 151.390625 363.464844 C 151.507812 363.488281 151.632812 363.507812 151.746094 363.507812 Z M 232.441406 363.464844 C 232.5625 363.464844 232.679688 363.445312 232.804688 363.417969 C 233.609375 363.222656 234.105469 362.40625 233.902344 361.59375 C 233.707031 360.785156 232.890625 360.289062 232.074219 360.492188 C 231.269531 360.6875 230.78125 361.511719 230.976562 362.320312 C 231.144531 363 231.757812 363.464844 232.441406 363.464844 Z M 145.183594 361.761719 C 145.839844 361.761719 146.441406 361.335938 146.628906 360.679688 C 146.859375 359.878906 146.398438 359.039062 145.59375 358.808594 C 144.792969 358.578125 143.953125 359.039062 143.730469 359.84375 C 143.5 360.644531 143.960938 361.484375 144.757812 361.707031 C 144.910156 361.742188 145.042969 361.761719 145.183594 361.761719 Z M 239.003906 361.707031 C 239.136719 361.707031 239.277344 361.6875 239.417969 361.652344 C 240.21875 361.421875 240.679688 360.582031 240.457031 359.78125 C 240.226562 358.984375 239.382812 358.523438 238.585938 358.753906 C 237.789062 358.984375 237.316406 359.828125 237.546875 360.625 C 237.742188 361.28125 238.347656 361.707031 239.003906 361.707031 Z M 138.699219 359.746094 C 139.332031 359.746094 139.925781 359.347656 140.136719 358.71875 C 140.402344 357.929688 139.96875 357.070312 139.179688 356.8125 C 138.390625 356.546875 137.539062 356.980469 137.273438 357.761719 C 137.007812 358.550781 137.441406 359.402344 138.230469 359.667969 C 138.382812 359.71875 138.542969 359.746094 138.699219 359.746094 Z M 245.476562 359.695312 C 245.636719 359.695312 245.796875 359.667969 245.957031 359.613281 C 246.746094 359.347656 247.171875 358.496094 246.902344 357.707031 C 246.636719 356.917969 245.785156 356.492188 244.996094 356.757812 C 244.207031 357.023438 243.78125 357.875 244.046875 358.664062 C 244.261719 359.296875 244.847656 359.695312 245.476562 359.695312 Z M 132.289062 357.46875 C 132.902344 357.46875 133.476562 357.09375 133.699219 356.492188 C 133.992188 355.710938 133.601562 354.84375 132.820312 354.550781 C 132.039062 354.257812 131.171875 354.648438 130.878906 355.429688 C 130.585938 356.207031 130.976562 357.078125 131.757812 357.371094 C 131.933594 357.433594 132.101562 357.46875 132.289062 357.46875 Z M 251.871094 357.40625 C 252.046875 357.40625 252.234375 357.378906 252.402344 357.308594 C 253.183594 357.015625 253.574219 356.136719 253.28125 355.367188 C 252.988281 354.585938 252.117188 354.195312 251.339844 354.488281 C 250.558594 354.78125 250.167969 355.660156 250.460938 356.429688 C 250.691406 357.035156 251.265625 357.40625 251.871094 357.40625 Z M 125.976562 354.933594 C 126.558594 354.933594 127.117188 354.585938 127.367188 354.007812 C 127.695312 353.238281 127.339844 352.359375 126.570312 352.03125 C 125.804688 351.703125 124.917969 352.058594 124.589844 352.820312 C 124.261719 353.59375 124.617188 354.46875 125.390625 354.796875 C 125.574219 354.886719 125.78125 354.933594 125.976562 354.933594 Z M 258.148438 354.871094 C 258.351562 354.871094 258.546875 354.835938 258.742188 354.746094 C 259.515625 354.417969 259.871094 353.539062 259.53125 352.769531 C 259.203125 351.996094 258.328125 351.640625 257.554688 351.96875 L 257.554688 351.980469 C 256.785156 352.308594 256.429688 353.195312 256.765625 353.957031 C 257.003906 354.53125 257.5625 354.871094 258.148438 354.871094 Z M 119.765625 352.128906 C 120.324219 352.128906 120.867188 351.808594 121.132812 351.269531 C 121.488281 350.515625 121.160156 349.621094 120.414062 349.257812 C 119.660156 348.902344 118.757812 349.230469 118.402344 349.972656 C 118.046875 350.726562 118.367188 351.625 119.121094 351.988281 C 119.332031 352.085938 119.554688 352.128906 119.765625 352.128906 Z M 264.332031 352.085938 C 264.550781 352.09375 264.765625 352.039062 264.976562 351.941406 C 265.722656 351.578125 266.050781 350.683594 265.695312 349.9375 C 265.332031 349.183594 264.4375 348.855469 263.683594 349.21875 C 262.929688 349.574219 262.609375 350.472656 262.964844 351.226562 C 263.214844 351.765625 263.761719 352.085938 264.332031 352.085938 Z M 113.683594 349.085938 C 114.222656 349.085938 114.757812 348.792969 115.023438 348.28125 C 115.414062 347.542969 115.128906 346.632812 114.394531 346.242188 C 113.664062 345.859375 112.753906 346.132812 112.351562 346.871094 C 111.972656 347.605469 112.246094 348.519531 112.984375 348.910156 C 113.203125 349.042969 113.453125 349.085938 113.683594 349.085938 Z M 270.386719 349.0625 C 270.625 349.0625 270.867188 349 271.089844 348.882812 C 271.089844 348.875 271.089844 348.875 271.089844 348.875 C 271.824219 348.492188 272.109375 347.578125 271.71875 346.835938 C 271.335938 346.109375 270.421875 345.816406 269.679688 346.207031 C 268.941406 346.59375 268.648438 347.507812 269.046875 348.253906 C 269.324219 348.769531 269.835938 349.050781 270.386719 349.0625 Z M 107.734375 345.804688 C 108.257812 345.804688 108.761719 345.53125 109.035156 345.050781 C 109.460938 344.324219 109.214844 343.410156 108.488281 342.996094 C 107.769531 342.578125 106.847656 342.816406 106.429688 343.542969 C 106.011719 344.273438 106.25 345.183594 106.980469 345.601562 C 107.21875 345.742188 107.476562 345.804688 107.734375 345.804688 Z M 276.320312 345.78125 C 276.578125 345.78125 276.835938 345.71875 277.074219 345.574219 C 277.792969 345.160156 278.039062 344.238281 277.613281 343.519531 C 277.199219 342.789062 276.277344 342.550781 275.558594 342.96875 C 274.839844 343.394531 274.589844 344.308594 275.007812 345.027344 C 275.292969 345.503906 275.796875 345.78125 276.320312 345.78125 Z M 101.914062 342.285156 C 102.410156 342.285156 102.898438 342.039062 103.191406 341.585938 C 103.636719 340.882812 103.433594 339.945312 102.722656 339.5 C 102.023438 339.058594 101.082031 339.269531 100.636719 339.972656 C 100.195312 340.679688 100.40625 341.613281 101.109375 342.054688 C 101.355469 342.214844 101.632812 342.285156 101.914062 342.285156 Z M 282.113281 342.269531 C 282.386719 342.269531 282.671875 342.195312 282.917969 342.035156 C 283.617188 341.59375 283.832031 340.652344 283.386719 339.953125 C 282.945312 339.242188 282.003906 339.039062 281.304688 339.484375 C 280.605469 339.925781 280.390625 340.859375 280.835938 341.566406 C 281.128906 342.019531 281.613281 342.269531 282.113281 342.269531 Z M 96.25 338.535156 C 96.726562 338.535156 97.195312 338.304688 97.488281 337.886719 C 97.96875 337.203125 97.800781 336.265625 97.109375 335.785156 C 96.425781 335.304688 95.476562 335.484375 95.007812 336.167969 C 94.535156 336.847656 94.707031 337.796875 95.386719 338.269531 C 95.652344 338.453125 95.957031 338.535156 96.25 338.535156 Z M 287.769531 338.523438 C 288.0625 338.523438 288.355469 338.445312 288.621094 338.257812 C 289.304688 337.78125 289.480469 336.847656 289.003906 336.15625 C 288.523438 335.472656 287.59375 335.296875 286.898438 335.777344 C 286.21875 336.253906 286.039062 337.1875 286.519531 337.867188 C 286.820312 338.292969 287.289062 338.523438 287.769531 338.523438 Z M 90.730469 334.5625 C 91.191406 334.5625 91.644531 334.355469 91.9375 333.96875 C 92.445312 333.292969 92.3125 332.351562 91.644531 331.847656 C 90.972656 331.351562 90.03125 331.484375 89.535156 332.148438 C 89.03125 332.8125 89.164062 333.761719 89.828125 334.257812 C 90.101562 334.464844 90.421875 334.5625 90.730469 334.5625 Z M 293.277344 334.550781 C 293.597656 334.550781 293.90625 334.453125 294.179688 334.25 C 294.847656 333.753906 294.980469 332.8125 294.472656 332.140625 C 293.976562 331.476562 293.039062 331.34375 292.363281 331.847656 C 291.699219 332.34375 291.566406 333.285156 292.070312 333.957031 C 292.363281 334.347656 292.816406 334.550781 293.277344 334.550781 Z M 85.394531 330.375 C 85.828125 330.375 86.261719 330.179688 86.5625 329.816406 C 87.097656 329.179688 87 328.21875 86.34375 327.695312 L 86.351562 327.695312 C 85.703125 327.164062 84.753906 327.261719 84.222656 327.910156 C 83.691406 328.558594 83.796875 329.507812 84.4375 330.03125 C 84.710938 330.261719 85.054688 330.375 85.394531 330.375 Z M 298.605469 330.367188 C 298.945312 330.367188 299.289062 330.261719 299.5625 330.03125 C 300.203125 329.496094 300.300781 328.558594 299.777344 327.910156 C 299.253906 327.261719 298.296875 327.171875 297.65625 327.695312 C 297.011719 328.21875 296.914062 329.167969 297.445312 329.816406 C 297.738281 330.179688 298.179688 330.367188 298.605469 330.367188 Z M 303.777344 325.976562 C 304.140625 325.976562 304.496094 325.851562 304.777344 325.59375 C 305.410156 325.046875 305.460938 324.097656 304.902344 323.464844 C 304.351562 322.835938 303.394531 322.785156 302.773438 323.34375 C 302.144531 323.890625 302.09375 324.851562 302.652344 325.472656 C 302.941406 325.800781 303.359375 325.976562 303.777344 325.976562 Z M 80.214844 325.96875 C 80.632812 325.96875 81.046875 325.789062 81.347656 325.460938 C 81.898438 324.832031 81.847656 323.882812 81.226562 323.324219 C 80.59375 322.773438 79.648438 322.835938 79.097656 323.457031 C 78.539062 324.078125 78.601562 325.035156 79.222656 325.585938 C 79.503906 325.84375 79.859375 325.96875 80.214844 325.96875 Z M 308.769531 321.375 C 309.152344 321.375 309.523438 321.230469 309.808594 320.949219 C 310.410156 320.371094 310.429688 319.414062 309.851562 318.8125 C 309.273438 318.207031 308.316406 318.191406 307.714844 318.765625 C 307.121094 319.34375 307.09375 320.300781 307.671875 320.902344 C 307.980469 321.214844 308.371094 321.375 308.769531 321.375 Z M 75.230469 321.363281 C 75.621094 321.363281 76.019531 321.207031 76.3125 320.894531 C 76.898438 320.300781 76.871094 319.34375 76.269531 318.765625 C 75.664062 318.179688 74.714844 318.207031 74.128906 318.800781 C 73.554688 319.40625 73.582031 320.355469 74.175781 320.9375 C 74.476562 321.222656 74.847656 321.363281 75.230469 321.363281 Z M 313.566406 316.566406 C 313.964844 316.566406 314.355469 316.417969 314.660156 316.105469 C 314.648438 316.105469 314.648438 316.105469 314.648438 316.105469 C 315.226562 315.503906 315.207031 314.554688 314.613281 313.96875 C 314.011719 313.390625 313.0625 313.410156 312.476562 314.011719 C 311.890625 314.605469 311.917969 315.566406 312.519531 316.152344 C 312.824219 316.433594 313.1875 316.566406 313.566406 316.566406 Z M 70.421875 316.566406 C 70.804688 316.566406 71.175781 316.425781 71.46875 316.140625 C 72.0625 315.566406 72.089844 314.605469 71.503906 314.003906 C 70.929688 313.410156 69.972656 313.382812 69.378906 313.960938 C 68.773438 314.535156 68.746094 315.503906 69.332031 316.097656 C 69.632812 316.40625 70.035156 316.566406 70.421875 316.566406 Z M 318.179688 311.582031 C 318.597656 311.582031 319.011719 311.40625 319.3125 311.078125 C 319.863281 310.449219 319.800781 309.5 319.191406 308.941406 C 318.558594 308.390625 317.613281 308.453125 317.050781 309.066406 C 316.503906 309.695312 316.566406 310.644531 317.175781 311.203125 C 317.460938 311.460938 317.824219 311.582031 318.179688 311.582031 Z M 65.820312 311.582031 C 66.175781 311.582031 66.53125 311.460938 66.8125 311.203125 C 67.445312 310.652344 67.496094 309.695312 66.9375 309.074219 C 66.386719 308.445312 65.441406 308.390625 64.808594 308.949219 C 64.179688 309.5 64.128906 310.457031 64.6875 311.078125 C 64.996094 311.40625 65.402344 311.582031 65.820312 311.582031 Z M 61.421875 306.414062 C 61.75 306.414062 62.097656 306.296875 62.371094 306.074219 C 63.019531 305.542969 63.105469 304.59375 62.585938 303.957031 L 62.585938 303.949219 C 62.050781 303.308594 61.101562 303.210938 60.464844 303.734375 C 59.816406 304.265625 59.726562 305.214844 60.25 305.863281 C 60.554688 306.226562 60.988281 306.414062 61.421875 306.414062 Z M 322.585938 306.414062 C 323.019531 306.414062 323.457031 306.226562 323.757812 305.863281 C 324.289062 305.214844 324.191406 304.265625 323.535156 303.734375 C 322.898438 303.210938 321.949219 303.308594 321.414062 303.949219 C 320.882812 304.59375 320.980469 305.542969 321.628906 306.074219 C 321.902344 306.296875 322.242188 306.414062 322.585938 306.414062 Z M 57.226562 301.082031 C 57.546875 301.082031 57.855469 300.976562 58.132812 300.773438 C 58.804688 300.277344 58.929688 299.328125 58.433594 298.660156 C 57.929688 297.996094 56.988281 297.863281 56.324219 298.371094 C 55.65625 298.867188 55.523438 299.804688 56.019531 300.480469 C 56.324219 300.871094 56.765625 301.082031 57.226562 301.082031 Z M 326.773438 301.066406 C 327.226562 301.066406 327.675781 300.859375 327.980469 300.472656 C 328.476562 299.804688 328.34375 298.855469 327.675781 298.359375 C 327.011719 297.855469 326.0625 297.988281 325.566406 298.652344 C 325.070312 299.316406 325.195312 300.265625 325.859375 300.765625 C 326.144531 300.96875 326.460938 301.066406 326.773438 301.066406 Z M 53.261719 295.585938 C 53.554688 295.585938 53.859375 295.496094 54.113281 295.308594 C 54.796875 294.832031 54.976562 293.890625 54.496094 293.21875 C 54.015625 292.535156 53.085938 292.355469 52.402344 292.835938 C 51.71875 293.3125 51.542969 294.253906 52.023438 294.9375 C 52.023438 294.945312 52.023438 294.945312 52.023438 294.945312 C 52.316406 295.355469 52.777344 295.585938 53.261719 295.585938 Z M 330.753906 295.558594 C 331.234375 295.558594 331.703125 295.328125 331.988281 294.910156 C 331.996094 294.910156 331.996094 294.910156 331.996094 294.910156 C 332.464844 294.226562 332.296875 293.277344 331.613281 292.808594 C 330.933594 292.328125 329.984375 292.507812 329.511719 293.191406 L 329.511719 293.179688 C 329.042969 293.863281 329.210938 294.8125 329.894531 295.28125 C 330.160156 295.476562 330.460938 295.558594 330.753906 295.558594 Z M 49.511719 289.925781 C 49.785156 289.925781 50.070312 289.855469 50.320312 289.695312 C 51.019531 289.253906 51.234375 288.3125 50.789062 287.613281 C 50.34375 286.910156 49.40625 286.699219 48.703125 287.152344 C 48.003906 287.59375 47.792969 288.527344 48.234375 289.226562 C 48.527344 289.679688 49.015625 289.925781 49.511719 289.925781 Z M 334.503906 289.890625 C 335.003906 289.890625 335.488281 289.652344 335.78125 289.191406 C 335.773438 289.191406 335.773438 289.191406 335.773438 289.191406 C 336.226562 288.488281 336.011719 287.558594 335.3125 287.105469 C 334.601562 286.664062 333.671875 286.875 333.230469 287.578125 C 332.785156 288.277344 332.988281 289.21875 333.699219 289.660156 C 333.957031 289.820312 334.230469 289.890625 334.503906 289.890625 Z M 46 284.125 C 46.257812 284.125 46.523438 284.054688 46.753906 283.921875 C 47.480469 283.507812 47.71875 282.582031 47.304688 281.867188 C 46.886719 281.136719 45.964844 280.898438 45.246094 281.316406 C 44.519531 281.730469 44.28125 282.65625 44.695312 283.371094 C 44.972656 283.859375 45.476562 284.125 46 284.125 Z M 338.027344 284.082031 C 338.558594 284.082031 339.0625 283.808594 339.339844 283.328125 C 339.753906 282.601562 339.507812 281.6875 338.789062 281.261719 C 338.0625 280.84375 337.148438 281.09375 336.730469 281.820312 C 336.304688 282.539062 336.554688 283.460938 337.273438 283.878906 C 337.511719 284.011719 337.777344 284.082031 338.027344 284.082031 Z M 42.71875 278.203125 C 42.949219 278.203125 43.199219 278.148438 43.417969 278.023438 C 44.148438 277.636719 44.4375 276.722656 44.050781 275.984375 C 43.667969 275.25 42.753906 274.964844 42.007812 275.355469 C 41.273438 275.738281 40.988281 276.652344 41.378906 277.394531 C 41.65625 277.902344 42.179688 278.203125 42.71875 278.203125 Z M 341.316406 278.132812 C 341.859375 278.132812 342.390625 277.839844 342.65625 277.324219 C 343.046875 276.589844 342.761719 275.675781 342.027344 275.285156 C 341.300781 274.894531 340.386719 275.179688 339.988281 275.921875 C 339.605469 276.652344 339.890625 277.5625 340.625 277.964844 C 340.835938 278.070312 341.078125 278.132812 341.316406 278.132812 Z M 39.6875 272.136719 C 39.90625 272.136719 40.121094 272.09375 40.332031 271.996094 C 41.085938 271.632812 41.40625 270.734375 41.050781 269.980469 C 40.6875 269.226562 39.792969 268.910156 39.039062 269.261719 C 38.285156 269.628906 37.964844 270.523438 38.320312 271.277344 C 38.578125 271.828125 39.117188 272.136719 39.6875 272.136719 Z M 344.359375 272.039062 C 344.925781 272.039062 345.457031 271.71875 345.722656 271.179688 C 345.722656 271.1875 345.722656 271.1875 345.722656 271.1875 C 346.078125 270.433594 345.757812 269.53125 345.003906 269.175781 C 344.253906 268.8125 343.355469 269.140625 342.992188 269.894531 C 342.636719 270.636719 342.957031 271.542969 343.710938 271.898438 C 343.925781 271.996094 344.144531 272.039062 344.359375 272.039062 Z M 36.890625 265.972656 C 37.097656 265.972656 37.292969 265.9375 37.488281 265.847656 C 38.257812 265.519531 38.613281 264.632812 38.277344 263.863281 C 37.949219 263.101562 37.0625 262.734375 36.296875 263.074219 C 35.527344 263.402344 35.171875 264.289062 35.507812 265.058594 C 35.75 265.617188 36.308594 265.972656 36.890625 265.972656 Z M 347.152344 265.847656 C 347.738281 265.847656 348.296875 265.503906 348.542969 264.925781 C 348.871094 264.15625 348.519531 263.277344 347.753906 262.949219 C 346.984375 262.621094 346.105469 262.976562 345.777344 263.738281 C 345.449219 264.5 345.796875 265.386719 346.566406 265.714844 C 346.761719 265.804688 346.957031 265.847656 347.152344 265.847656 Z M 34.355469 259.695312 C 34.535156 259.695312 34.71875 259.667969 34.898438 259.597656 C 35.675781 259.296875 36.066406 258.425781 35.765625 257.65625 C 35.472656 256.875 34.605469 256.476562 33.824219 256.777344 C 33.042969 257.070312 32.652344 257.949219 32.953125 258.71875 C 32.945312 258.71875 32.945312 258.71875 32.945312 258.71875 C 33.175781 259.320312 33.753906 259.695312 34.355469 259.695312 Z M 349.707031 259.535156 C 350.308594 259.535156 350.886719 259.164062 351.117188 258.558594 C 351.410156 257.777344 351.019531 256.910156 350.230469 256.617188 C 349.449219 256.324219 348.578125 256.707031 348.285156 257.496094 C 347.984375 258.277344 348.375 259.144531 349.164062 259.4375 C 349.34375 259.507812 349.519531 259.535156 349.707031 259.535156 Z M 32.066406 253.292969 C 32.226562 253.292969 32.394531 253.265625 32.546875 253.210938 C 33.335938 252.945312 33.761719 252.085938 33.496094 251.304688 C 33.230469 250.515625 32.378906 250.082031 31.589844 250.355469 C 30.800781 250.621094 30.375 251.472656 30.640625 252.261719 C 30.851562 252.890625 31.445312 253.292969 32.066406 253.292969 Z M 351.984375 253.121094 C 352.613281 253.121094 353.210938 252.722656 353.421875 252.085938 C 353.6875 251.296875 353.261719 250.445312 352.472656 250.179688 C 351.683594 249.914062 350.824219 250.347656 350.566406 251.128906 C 350.300781 251.917969 350.726562 252.769531 351.515625 253.035156 C 351.664062 253.085938 351.824219 253.121094 351.984375 253.121094 Z M 30.046875 246.816406 C 30.179688 246.816406 30.320312 246.800781 30.472656 246.753906 C 31.269531 246.523438 31.730469 245.691406 31.5 244.894531 C 31.269531 244.09375 30.4375 243.625 29.628906 243.863281 C 28.832031 244.09375 28.371094 244.9375 28.601562 245.734375 C 28.785156 246.382812 29.390625 246.816406 30.046875 246.816406 Z M 354.007812 246.632812 C 354.664062 246.632812 355.265625 246.195312 355.453125 245.539062 C 355.683594 244.742188 355.222656 243.898438 354.414062 243.667969 C 353.617188 243.4375 352.773438 243.898438 352.554688 244.707031 C 352.320312 245.503906 352.785156 246.347656 353.582031 246.570312 C 353.722656 246.621094 353.867188 246.632812 354.007812 246.632812 Z M 28.289062 240.253906 C 28.414062 240.253906 28.53125 240.238281 28.652344 240.210938 C 29.460938 240.015625 29.957031 239.191406 29.753906 238.382812 C 29.558594 237.578125 28.734375 237.089844 27.925781 237.285156 C 27.121094 237.480469 26.621094 238.304688 26.828125 239.109375 C 26.996094 239.792969 27.605469 240.253906 28.289062 240.253906 Z M 355.753906 240.078125 C 356.4375 240.078125 357.050781 239.617188 357.21875 238.933594 C 357.421875 238.117188 356.925781 237.300781 356.117188 237.105469 C 355.3125 236.902344 354.484375 237.398438 354.289062 238.207031 C 354.097656 239.011719 354.582031 239.839844 355.390625 240.035156 C 355.515625 240.058594 355.640625 240.078125 355.753906 240.078125 Z M 26.800781 233.628906 C 26.898438 233.628906 27.003906 233.621094 27.101562 233.605469 C 27.917969 233.433594 28.441406 232.644531 28.28125 231.820312 C 28.113281 231.003906 27.316406 230.480469 26.5 230.640625 C 25.683594 230.820312 25.160156 231.609375 25.320312 232.425781 C 25.460938 233.140625 26.097656 233.628906 26.800781 233.628906 Z M 357.242188 233.453125 C 357.945312 233.453125 358.582031 232.964844 358.726562 232.246094 C 358.894531 231.421875 358.363281 230.632812 357.546875 230.464844 C 356.722656 230.296875 355.929688 230.828125 355.761719 231.644531 C 355.59375 232.460938 356.125 233.257812 356.941406 233.425781 C 357.039062 233.445312 357.148438 233.453125 357.242188 233.453125 Z M 25.578125 226.960938 C 25.65625 226.960938 25.734375 226.953125 25.816406 226.933594 C 26.640625 226.808594 27.199219 226.03125 27.058594 225.207031 C 26.933594 224.378906 26.152344 223.820312 25.328125 223.964844 C 24.503906 224.089844 23.945312 224.867188 24.078125 225.691406 C 24.203125 226.429688 24.839844 226.960938 25.578125 226.960938 Z M 358.460938 226.773438 C 359.1875 226.773438 359.832031 226.242188 359.949219 225.496094 C 360.074219 224.671875 359.515625 223.902344 358.699219 223.769531 C 357.875 223.644531 357.101562 224.195312 356.96875 225.019531 C 356.835938 225.84375 357.394531 226.605469 358.210938 226.75 C 358.300781 226.765625 358.378906 226.773438 358.460938 226.773438 Z M 24.617188 220.238281 C 24.679688 220.238281 24.742188 220.238281 24.804688 220.230469 C 25.628906 220.132812 26.222656 219.378906 26.117188 218.546875 C 26.019531 217.71875 25.265625 217.125 24.441406 217.234375 C 23.609375 217.332031 23.023438 218.085938 23.121094 218.910156 C 23.21875 219.679688 23.875 220.238281 24.617188 220.238281 Z M 359.40625 220.042969 C 360.160156 220.042969 360.808594 219.484375 360.898438 218.714844 C 360.996094 217.890625 360.410156 217.136719 359.578125 217.039062 C 358.75 216.929688 357.996094 217.523438 357.898438 218.359375 C 357.804688 219.183594 358.386719 219.9375 359.222656 220.035156 C 359.285156 220.042969 359.347656 220.042969 359.40625 220.042969 Z M 23.9375 213.480469 C 23.980469 213.480469 24.015625 213.480469 24.058594 213.472656 C 24.894531 213.402344 25.503906 212.683594 25.441406 211.847656 C 25.371094 211.015625 24.644531 210.402344 23.8125 210.457031 C 22.976562 210.535156 22.367188 211.253906 22.429688 212.089844 C 22.5 212.886719 23.164062 213.480469 23.9375 213.480469 Z M 360.074219 213.296875 C 360.855469 213.296875 361.511719 212.699219 361.570312 211.902344 C 361.644531 211.070312 361.023438 210.34375 360.1875 210.28125 C 359.355469 210.207031 358.628906 210.828125 358.558594 211.664062 C 358.496094 212.496094 359.117188 213.222656 359.949219 213.285156 C 359.992188 213.296875 360.039062 213.296875 360.074219 213.296875 Z M 23.519531 206.707031 C 23.546875 206.707031 23.5625 206.695312 23.589844 206.695312 C 24.421875 206.671875 25.070312 205.960938 25.035156 205.136719 C 25 204.300781 24.300781 203.644531 23.464844 203.691406 C 22.632812 203.71875 21.976562 204.425781 22.019531 205.261719 C 22.054688 206.066406 22.722656 206.707031 23.519531 206.707031 Z M 360.480469 206.519531 C 361.277344 206.519531 361.953125 205.882812 361.980469 205.074219 C 362.007812 204.242188 361.367188 203.53125 360.535156 203.503906 C 359.699219 203.476562 359 204.117188 358.972656 204.949219 C 358.9375 205.785156 359.585938 206.484375 360.410156 206.511719 C 360.4375 206.519531 360.464844 206.519531 360.480469 206.519531 Z M 23.386719 199.921875 C 24.21875 199.921875 24.894531 199.238281 24.894531 198.414062 C 24.894531 197.582031 24.210938 196.90625 23.386719 196.90625 C 22.550781 196.90625 21.878906 197.589844 21.878906 198.414062 C 21.878906 199.246094 22.5625 199.921875 23.386719 199.921875 Z M 360.613281 199.734375 C 361.449219 199.734375 362.121094 199.050781 362.121094 198.226562 C 362.121094 198.15625 362.121094 198.105469 362.105469 198.03125 C 362.113281 197.96875 362.121094 197.910156 362.121094 197.855469 C 362.121094 197.023438 361.4375 196.347656 360.613281 196.355469 C 359.78125 196.355469 359.105469 197.03125 359.105469 197.863281 C 359.105469 197.933594 359.117188 197.988281 359.125 198.050781 C 359.117188 198.113281 359.105469 198.175781 359.105469 198.226562 C 359.105469 199.050781 359.78125 199.734375 360.613281 199.734375 Z M 23.519531 193.128906 C 24.324219 193.128906 25 192.5 25.027344 191.683594 C 25.054688 190.847656 24.40625 190.148438 23.582031 190.113281 C 22.746094 190.085938 22.039062 190.734375 22.011719 191.558594 C 21.984375 192.390625 22.632812 193.101562 23.457031 193.128906 C 23.472656 193.128906 23.492188 193.128906 23.519531 193.128906 Z M 360.464844 192.570312 C 360.488281 192.570312 360.507812 192.570312 360.535156 192.570312 C 361.367188 192.535156 362.015625 191.832031 361.972656 191 C 361.945312 190.167969 361.234375 189.511719 360.402344 189.554688 C 359.566406 189.589844 358.921875 190.289062 358.957031 191.125 C 358.992188 191.941406 359.65625 192.570312 360.464844 192.570312 Z M 23.917969 186.351562 C 24.699219 186.351562 25.355469 185.75 25.417969 184.960938 C 25.480469 184.128906 24.859375 183.398438 24.023438 183.328125 C 23.191406 183.265625 22.472656 183.886719 22.402344 184.722656 C 22.332031 185.554688 22.960938 186.28125 23.792969 186.34375 C 23.828125 186.351562 23.875 186.351562 23.917969 186.351562 Z M 360.039062 185.792969 C 360.082031 185.792969 360.117188 185.785156 360.160156 185.785156 C 360.996094 185.714844 361.605469 184.988281 361.546875 184.152344 C 361.472656 183.320312 360.757812 182.707031 359.914062 182.769531 C 359.078125 182.839844 358.46875 183.570312 358.53125 184.402344 C 358.609375 185.191406 359.265625 185.792969 360.039062 185.792969 Z M 24.582031 179.59375 C 25.335938 179.59375 25.984375 179.035156 26.074219 178.265625 C 26.171875 177.429688 25.585938 176.6875 24.75 176.589844 C 23.925781 176.492188 23.171875 177.078125 23.074219 177.910156 C 22.976562 178.734375 23.5625 179.488281 24.398438 179.585938 C 24.457031 179.59375 24.519531 179.59375 24.582031 179.59375 Z M 359.355469 179.046875 C 359.417969 179.046875 359.480469 179.035156 359.542969 179.027344 C 360.367188 178.929688 360.949219 178.175781 360.855469 177.34375 C 360.757812 176.507812 360.003906 175.933594 359.167969 176.03125 C 358.34375 176.128906 357.757812 176.882812 357.855469 177.714844 C 357.953125 178.476562 358.609375 179.046875 359.355469 179.046875 Z M 25.515625 172.875 C 26.25 172.875 26.890625 172.339844 27.003906 171.605469 C 27.128906 170.78125 26.578125 170.007812 25.753906 169.875 C 24.929688 169.742188 24.15625 170.308594 24.023438 171.117188 C 24.015625 171.117188 24.015625 171.117188 24.015625 171.117188 C 23.890625 171.949219 24.441406 172.714844 25.265625 172.855469 C 25.355469 172.863281 25.433594 172.875 25.515625 172.875 Z M 358.398438 172.324219 C 358.476562 172.324219 358.566406 172.316406 358.644531 172.296875 C 359.46875 172.164062 360.027344 171.382812 359.886719 170.558594 C 359.753906 169.734375 358.972656 169.175781 358.148438 169.316406 C 357.324219 169.449219 356.765625 170.230469 356.90625 171.054688 C 357.03125 171.792969 357.667969 172.324219 358.398438 172.324219 Z M 26.71875 166.1875 C 27.429688 166.1875 28.058594 165.699219 28.203125 164.980469 C 28.371094 164.164062 27.835938 163.367188 27.023438 163.199219 C 26.207031 163.039062 25.40625 163.570312 25.238281 164.386719 C 25.070312 165.203125 25.601562 166 26.425781 166.167969 C 26.523438 166.1875 26.621094 166.1875 26.71875 166.1875 Z M 357.164062 165.644531 C 357.261719 165.644531 357.367188 165.628906 357.464844 165.617188 C 358.289062 165.441406 358.804688 164.652344 358.644531 163.828125 C 358.476562 163.011719 357.679688 162.488281 356.863281 162.65625 C 356.046875 162.824219 355.523438 163.625 355.683594 164.4375 C 355.835938 165.15625 356.464844 165.644531 357.164062 165.644531 Z M 28.203125 159.5625 C 28.882812 159.5625 29.496094 159.101562 29.664062 158.417969 C 29.859375 157.601562 29.371094 156.785156 28.554688 156.589844 C 27.75 156.394531 26.933594 156.882812 26.738281 157.699219 C 26.542969 158.507812 27.03125 159.324219 27.847656 159.515625 C 27.960938 159.554688 28.085938 159.5625 28.203125 159.5625 Z M 355.664062 159.019531 C 355.789062 159.019531 355.90625 159.003906 356.027344 158.976562 C 356.835938 158.78125 357.332031 157.957031 357.128906 157.148438 C 356.933594 156.34375 356.109375 155.847656 355.300781 156.050781 C 354.496094 156.253906 354.007812 157.070312 354.203125 157.875 C 354.371094 158.558594 354.984375 159.019531 355.664062 159.019531 Z M 29.949219 153.007812 C 30.597656 153.007812 31.199219 152.574219 31.394531 151.917969 C 31.625 151.117188 31.164062 150.277344 30.355469 150.046875 C 29.558594 149.816406 28.714844 150.277344 28.484375 151.082031 C 28.253906 151.882812 28.714844 152.722656 29.523438 152.953125 C 29.671875 152.992188 29.804688 153.007812 29.949219 153.007812 Z M 353.902344 152.46875 C 354.042969 152.46875 354.175781 152.449219 354.328125 152.40625 C 355.125 152.175781 355.585938 151.332031 355.355469 150.535156 C 355.125 149.734375 354.28125 149.273438 353.484375 149.503906 C 352.6875 149.734375 352.226562 150.578125 352.457031 151.375 C 352.640625 152.042969 353.246094 152.46875 353.902344 152.46875 Z M 31.960938 146.523438 C 32.589844 146.523438 33.183594 146.125 33.398438 145.488281 C 33.65625 144.699219 33.230469 143.847656 32.441406 143.582031 C 31.652344 143.316406 30.800781 143.75 30.535156 144.539062 C 30.269531 145.328125 30.703125 146.179688 31.492188 146.445312 C 31.640625 146.5 31.800781 146.523438 31.960938 146.523438 Z M 351.871094 145.992188 C 352.03125 145.992188 352.1875 145.964844 352.347656 145.914062 C 353.128906 145.648438 353.5625 144.796875 353.296875 144.007812 C 353.023438 143.21875 352.171875 142.792969 351.382812 143.058594 C 350.601562 143.324219 350.167969 144.183594 350.433594 144.964844 C 350.644531 145.59375 351.230469 145.992188 351.871094 145.992188 Z M 34.230469 140.113281 C 34.835938 140.113281 35.410156 139.730469 35.640625 139.128906 C 35.933594 138.347656 35.542969 137.480469 34.753906 137.1875 C 33.976562 136.886719 33.113281 137.277344 32.8125 138.066406 C 32.527344 138.84375 32.917969 139.714844 33.699219 140.007812 C 33.878906 140.070312 34.054688 140.113281 34.230469 140.113281 Z M 349.574219 139.597656 C 349.75 139.597656 349.9375 139.574219 350.105469 139.5 C 350.886719 139.207031 351.277344 138.332031 350.984375 137.558594 C 350.679688 136.777344 349.8125 136.390625 349.039062 136.691406 C 348.261719 136.984375 347.871094 137.859375 348.164062 138.632812 C 348.402344 139.234375 348.960938 139.597656 349.574219 139.597656 Z M 36.769531 133.800781 C 37.355469 133.800781 37.902344 133.453125 38.160156 132.875 C 38.488281 132.105469 38.132812 131.226562 37.363281 130.890625 C 36.589844 130.5625 35.710938 130.925781 35.382812 131.6875 C 35.054688 132.460938 35.410156 133.339844 36.183594 133.675781 C 36.371094 133.746094 36.574219 133.800781 36.769531 133.800781 Z M 347.035156 133.328125 C 347.230469 133.328125 347.4375 133.292969 347.628906 133.203125 C 348.394531 132.875 348.75 131.988281 348.421875 131.21875 C 348.09375 130.445312 347.207031 130.09375 346.433594 130.429688 C 345.671875 130.757812 345.316406 131.644531 345.644531 132.414062 C 345.894531 132.984375 346.441406 133.328125 347.035156 133.328125 Z M 39.554688 127.582031 C 40.121094 127.582031 40.660156 127.261719 40.917969 126.722656 C 41.28125 125.96875 40.953125 125.0625 40.199219 124.710938 C 39.445312 124.355469 38.550781 124.671875 38.195312 125.425781 C 37.832031 126.179688 38.160156 127.078125 38.914062 127.441406 C 39.117188 127.539062 39.339844 127.582031 39.554688 127.582031 Z M 344.242188 127.15625 C 344.457031 127.15625 344.675781 127.113281 344.890625 127.007812 C 345.636719 126.652344 345.964844 125.746094 345.601562 125 C 345.238281 124.246094 344.339844 123.929688 343.585938 124.285156 C 342.84375 124.648438 342.515625 125.550781 342.878906 126.296875 C 343.132812 126.835938 343.675781 127.15625 344.242188 127.15625 Z M 42.59375 121.5 C 43.136719 121.5 43.667969 121.207031 43.933594 120.691406 C 44.324219 119.957031 44.039062 119.050781 43.304688 118.652344 C 42.566406 118.269531 41.65625 118.554688 41.265625 119.28125 C 40.882812 120.019531 41.15625 120.929688 41.894531 121.320312 C 42.117188 121.445312 42.363281 121.5 42.59375 121.5 Z M 341.191406 121.101562 C 341.433594 121.101562 341.671875 121.046875 341.902344 120.921875 C 342.628906 120.539062 342.921875 119.628906 342.53125 118.882812 C 342.148438 118.148438 341.238281 117.863281 340.492188 118.253906 C 339.753906 118.632812 339.472656 119.546875 339.863281 120.292969 C 340.128906 120.808594 340.652344 121.101562 341.191406 121.101562 Z M 45.875 115.546875 C 46.398438 115.546875 46.90625 115.273438 47.179688 114.792969 C 47.597656 114.066406 47.355469 113.152344 46.628906 112.738281 C 45.902344 112.3125 44.988281 112.558594 44.574219 113.285156 C 44.15625 114.015625 44.394531 114.925781 45.121094 115.34375 C 45.351562 115.476562 45.617188 115.546875 45.875 115.546875 Z M 337.910156 115.175781 C 338.167969 115.175781 338.425781 115.105469 338.664062 114.972656 C 339.390625 114.546875 339.632812 113.632812 339.214844 112.90625 C 338.789062 112.1875 337.875 111.9375 337.148438 112.363281 C 336.429688 112.78125 336.183594 113.703125 336.609375 114.421875 C 336.882812 114.902344 337.386719 115.175781 337.910156 115.175781 Z M 49.386719 109.730469 C 49.882812 109.730469 50.371094 109.480469 50.664062 109.03125 C 51.109375 108.320312 50.894531 107.390625 50.195312 106.945312 C 49.496094 106.503906 48.554688 106.714844 48.109375 107.414062 C 47.667969 108.117188 47.878906 109.054688 48.582031 109.5 C 48.828125 109.652344 49.113281 109.730469 49.386719 109.730469 Z M 334.390625 109.382812 C 334.664062 109.382812 334.949219 109.304688 335.199219 109.152344 C 335.898438 108.703125 336.109375 107.769531 335.667969 107.070312 C 335.214844 106.359375 334.285156 106.15625 333.582031 106.601562 C 332.875 107.042969 332.667969 107.984375 333.113281 108.683594 C 333.398438 109.136719 333.894531 109.382812 334.390625 109.382812 Z M 53.140625 104.054688 C 53.617188 104.054688 54.089844 103.824219 54.378906 103.40625 C 54.851562 102.722656 54.683594 101.777344 54 101.3125 C 53.316406 100.835938 52.367188 101.011719 51.898438 101.695312 C 51.425781 102.378906 51.597656 103.320312 52.277344 103.789062 C 52.546875 103.976562 52.835938 104.054688 53.140625 104.054688 Z M 330.640625 103.734375 C 330.933594 103.734375 331.234375 103.65625 331.492188 103.460938 C 332.171875 102.992188 332.351562 102.050781 331.871094 101.367188 C 331.394531 100.683594 330.453125 100.515625 329.769531 100.984375 C 329.085938 101.464844 328.917969 102.394531 329.386719 103.078125 C 329.691406 103.503906 330.160156 103.734375 330.640625 103.734375 Z M 57.113281 98.539062 C 57.574219 98.539062 58.027344 98.335938 58.316406 97.933594 C 58.824219 97.269531 58.691406 96.332031 58.015625 95.824219 C 57.351562 95.328125 56.410156 95.460938 55.90625 96.125 C 55.410156 96.800781 55.542969 97.742188 56.207031 98.238281 C 56.472656 98.441406 56.792969 98.539062 57.113281 98.539062 Z M 326.65625 98.238281 C 326.976562 98.238281 327.296875 98.140625 327.570312 97.925781 C 328.234375 97.429688 328.359375 96.488281 327.863281 95.816406 C 327.359375 95.152344 326.417969 95.027344 325.753906 95.523438 C 325.078125 96.027344 324.953125 96.96875 325.460938 97.632812 C 325.753906 98.023438 326.203125 98.238281 326.65625 98.238281 Z M 61.296875 93.191406 C 61.734375 93.191406 62.175781 93.003906 62.476562 92.640625 C 63.007812 91.992188 62.902344 91.042969 62.257812 90.523438 C 61.617188 89.988281 60.660156 90.085938 60.136719 90.734375 C 59.605469 91.382812 59.703125 92.332031 60.347656 92.855469 C 60.625 93.085938 60.960938 93.191406 61.296875 93.191406 Z M 322.460938 92.90625 C 322.800781 92.90625 323.144531 92.792969 323.421875 92.570312 C 324.058594 92.039062 324.15625 91.089844 323.632812 90.441406 C 323.109375 89.804688 322.152344 89.707031 321.503906 90.230469 C 320.867188 90.761719 320.769531 91.710938 321.292969 92.355469 C 321.59375 92.722656 322.027344 92.90625 322.460938 92.90625 Z M 65.707031 88.019531 C 66.121094 88.019531 66.539062 87.84375 66.832031 87.507812 C 67.390625 86.875 67.328125 85.929688 66.707031 85.378906 C 66.085938 84.828125 65.128906 84.882812 64.578125 85.503906 C 64.03125 86.132812 64.089844 87.082031 64.703125 87.628906 C 64.988281 87.898438 65.351562 88.019531 65.707031 88.019531 Z M 318.054688 87.746094 C 318.410156 87.746094 318.773438 87.621094 319.058594 87.363281 C 319.679688 86.816406 319.738281 85.867188 319.179688 85.234375 C 319.191406 85.234375 319.191406 85.234375 319.191406 85.234375 C 318.632812 84.617188 317.683594 84.554688 317.054688 85.113281 C 316.421875 85.671875 316.371094 86.621094 316.929688 87.25 L 316.9375 87.25 C 317.230469 87.570312 317.636719 87.746094 318.054688 87.746094 Z M 70.308594 83.027344 C 70.699219 83.027344 71.097656 82.867188 71.390625 82.558594 C 71.964844 81.953125 71.949219 81.003906 71.347656 80.421875 C 70.742188 79.84375 69.792969 79.871094 69.207031 80.464844 C 68.632812 81.066406 68.648438 82.027344 69.253906 82.601562 C 69.546875 82.886719 69.925781 83.027344 70.308594 83.027344 Z M 313.441406 82.761719 C 313.824219 82.761719 314.195312 82.621094 314.488281 82.335938 C 315.082031 81.75 315.101562 80.792969 314.523438 80.199219 C 313.941406 79.597656 312.992188 79.578125 312.386719 80.164062 C 311.785156 80.738281 311.765625 81.699219 312.351562 82.292969 C 312.652344 82.609375 313.042969 82.761719 313.441406 82.761719 Z M 75.105469 78.222656 C 75.480469 78.222656 75.851562 78.078125 76.144531 77.796875 C 76.746094 77.210938 76.765625 76.261719 76.1875 75.660156 C 75.601562 75.0625 74.652344 75.039062 74.050781 75.621094 C 73.449219 76.199219 73.429688 77.15625 74.007812 77.75 C 74.308594 78.070312 74.707031 78.222656 75.105469 78.222656 Z M 308.636719 77.964844 C 309.035156 77.964844 309.433594 77.8125 309.726562 77.503906 C 310.304688 76.898438 310.285156 75.941406 309.683594 75.367188 C 309.082031 74.78125 308.132812 74.808594 307.546875 75.410156 C 306.96875 76.011719 306.996094 76.960938 307.589844 77.546875 C 307.882812 77.832031 308.265625 77.964844 308.636719 77.964844 Z M 80.082031 73.617188 C 80.4375 73.617188 80.800781 73.496094 81.082031 73.238281 C 81.714844 72.6875 81.765625 71.738281 81.207031 71.109375 C 80.648438 70.488281 79.699219 70.425781 79.070312 70.984375 C 78.449219 71.542969 78.386719 72.492188 78.945312 73.121094 C 79.246094 73.441406 79.664062 73.617188 80.082031 73.617188 Z M 303.636719 73.371094 C 304.0625 73.371094 304.46875 73.191406 304.769531 72.855469 C 305.320312 72.226562 305.265625 71.277344 304.644531 70.726562 C 304.015625 70.175781 303.066406 70.230469 302.515625 70.851562 C 301.957031 71.480469 302.019531 72.429688 302.640625 72.980469 C 302.933594 73.246094 303.28125 73.371094 303.636719 73.371094 Z M 85.25 69.210938 C 85.578125 69.210938 85.925781 69.09375 86.199219 68.875 C 86.847656 68.34375 86.9375 67.394531 86.414062 66.746094 C 85.882812 66.105469 84.933594 66.019531 84.292969 66.542969 C 83.644531 67.074219 83.558594 68.015625 84.082031 68.660156 C 84.375 69.023438 84.808594 69.210938 85.25 69.210938 Z M 298.464844 68.972656 C 298.898438 68.972656 299.332031 68.785156 299.636719 68.414062 C 300.167969 67.765625 300.070312 66.816406 299.414062 66.292969 C 298.773438 65.761719 297.816406 65.867188 297.292969 66.515625 C 296.769531 67.152344 296.867188 68.101562 297.515625 68.632812 C 297.789062 68.863281 298.128906 68.972656 298.464844 68.972656 Z M 90.582031 65.015625 C 90.902344 65.015625 91.210938 64.917969 91.484375 64.714844 C 92.152344 64.21875 92.285156 63.269531 91.777344 62.605469 C 91.28125 61.9375 90.332031 61.804688 89.667969 62.3125 C 89.003906 62.808594 88.871094 63.757812 89.375 64.421875 C 89.667969 64.8125 90.121094 65.015625 90.582031 65.015625 Z M 293.117188 64.785156 C 293.578125 64.785156 294.03125 64.574219 294.324219 64.183594 C 294.820312 63.515625 294.6875 62.570312 294.023438 62.070312 C 293.355469 61.574219 292.40625 61.707031 291.910156 62.375 C 291.414062 63.039062 291.539062 63.988281 292.210938 64.484375 C 292.476562 64.6875 292.796875 64.785156 293.117188 64.785156 Z M 96.070312 61.042969 C 96.371094 61.042969 96.664062 60.953125 96.929688 60.769531 C 97.613281 60.289062 97.792969 59.359375 97.3125 58.667969 C 96.832031 57.984375 95.894531 57.804688 95.210938 58.285156 C 94.527344 58.765625 94.359375 59.703125 94.828125 60.386719 C 95.132812 60.820312 95.601562 61.042969 96.070312 61.042969 Z M 287.601562 60.820312 C 288.078125 60.820312 288.550781 60.589844 288.832031 60.164062 C 289.3125 59.480469 289.136719 58.542969 288.453125 58.0625 C 287.769531 57.59375 286.828125 57.769531 286.351562 58.445312 C 285.871094 59.128906 286.050781 60.078125 286.730469 60.546875 C 287.007812 60.734375 287.300781 60.820312 287.601562 60.820312 Z M 101.730469 57.300781 C 102.003906 57.300781 102.289062 57.222656 102.542969 57.0625 L 102.542969 57.070312 C 103.246094 56.617188 103.449219 55.6875 103.007812 54.984375 C 102.5625 54.277344 101.621094 54.074219 100.921875 54.515625 C 100.222656 54.960938 100.007812 55.898438 100.453125 56.601562 C 100.746094 57.042969 101.222656 57.300781 101.730469 57.300781 Z M 281.925781 57.078125 C 282.421875 57.078125 282.910156 56.832031 283.203125 56.371094 C 283.644531 55.667969 283.433594 54.738281 282.730469 54.292969 C 282.023438 53.851562 281.089844 54.054688 280.648438 54.765625 C 280.203125 55.464844 280.417969 56.40625 281.117188 56.847656 C 281.367188 57 281.648438 57.078125 281.925781 57.078125 Z M 107.527344 53.769531 C 107.785156 53.769531 108.042969 53.710938 108.28125 53.566406 C 109 53.148438 109.25 52.226562 108.824219 51.507812 C 108.40625 50.78125 107.484375 50.542969 106.765625 50.960938 C 106.046875 51.386719 105.800781 52.300781 106.214844 53.027344 C 106.5 53.503906 107.003906 53.769531 107.527344 53.769531 Z M 276.097656 53.558594 C 276.628906 53.558594 277.136719 53.285156 277.410156 52.804688 C 277.828125 52.078125 277.578125 51.164062 276.859375 50.738281 C 276.859375 50.746094 276.859375 50.746094 276.859375 50.746094 C 276.132812 50.320312 275.210938 50.570312 274.796875 51.296875 C 274.378906 52.023438 274.625 52.9375 275.355469 53.355469 C 275.59375 53.496094 275.851562 53.558594 276.097656 53.558594 Z M 113.453125 50.488281 C 113.683594 50.488281 113.933594 50.4375 114.152344 50.3125 C 114.890625 49.929688 115.171875 49.019531 114.78125 48.273438 C 114.402344 47.535156 113.488281 47.253906 112.742188 47.644531 C 112.007812 48.035156 111.722656 48.945312 112.113281 49.691406 C 112.390625 50.195312 112.910156 50.488281 113.453125 50.488281 Z M 270.148438 50.277344 C 270.6875 50.277344 271.210938 49.984375 271.488281 49.46875 C 271.867188 48.734375 271.585938 47.828125 270.859375 47.429688 C 270.121094 47.050781 269.207031 47.332031 268.816406 48.070312 C 268.4375 48.796875 268.710938 49.710938 269.457031 50.109375 C 269.679688 50.222656 269.910156 50.277344 270.148438 50.277344 Z M 119.511719 47.457031 C 119.730469 47.457031 119.945312 47.402344 120.15625 47.304688 C 120.910156 46.941406 121.230469 46.046875 120.867188 45.292969 C 120.511719 44.546875 119.617188 44.21875 118.863281 44.582031 C 118.109375 44.9375 117.789062 45.84375 118.152344 46.585938 C 118.410156 47.136719 118.941406 47.457031 119.511719 47.457031 Z M 264.0625 47.242188 C 264.632812 47.242188 265.171875 46.925781 265.429688 46.382812 C 265.785156 45.628906 265.457031 44.734375 264.710938 44.378906 C 263.957031 44.015625 263.054688 44.34375 262.699219 45.097656 C 262.34375 45.84375 262.671875 46.746094 263.417969 47.101562 C 263.621094 47.199219 263.84375 47.242188 264.0625 47.242188 Z M 125.683594 44.664062 C 125.878906 44.664062 126.082031 44.628906 126.277344 44.539062 C 127.039062 44.210938 127.394531 43.324219 127.066406 42.5625 C 126.738281 41.789062 125.851562 41.433594 125.078125 41.761719 C 124.316406 42.089844 123.960938 42.976562 124.289062 43.75 C 124.539062 44.316406 125.089844 44.664062 125.683594 44.664062 Z M 257.855469 44.46875 C 258.441406 44.46875 259 44.121094 259.25 43.546875 C 259.578125 42.773438 259.222656 41.894531 258.449219 41.566406 C 257.6875 41.238281 256.800781 41.59375 256.472656 42.367188 C 256.144531 43.128906 256.5 44.015625 257.269531 44.34375 C 257.457031 44.425781 257.660156 44.46875 257.855469 44.46875 Z M 131.953125 42.125 C 132.128906 42.125 132.316406 42.101562 132.484375 42.03125 C 133.265625 41.726562 133.65625 40.859375 133.363281 40.085938 C 133.0625 39.308594 132.191406 38.917969 131.421875 39.210938 C 130.640625 39.5 130.25 40.378906 130.542969 41.152344 C 130.773438 41.753906 131.339844 42.125 131.953125 42.125 Z M 251.542969 41.933594 C 252.152344 41.933594 252.730469 41.558594 252.953125 40.957031 C 253.246094 40.175781 252.855469 39.308594 252.074219 39.015625 C 251.292969 38.722656 250.425781 39.113281 250.132812 39.902344 C 249.839844 40.679688 250.230469 41.542969 251.011719 41.84375 C 251.1875 41.894531 251.363281 41.933594 251.542969 41.933594 Z M 138.347656 39.828125 C 138.507812 39.828125 138.675781 39.804688 138.824219 39.75 C 139.613281 39.484375 140.039062 38.632812 139.773438 37.84375 C 139.507812 37.054688 138.648438 36.628906 137.859375 36.894531 C 137.078125 37.160156 136.644531 38.011719 136.917969 38.800781 C 137.132812 39.441406 137.714844 39.828125 138.347656 39.828125 Z M 245.128906 39.660156 C 245.761719 39.660156 246.34375 39.261719 246.558594 38.625 C 246.824219 37.835938 246.390625 36.984375 245.601562 36.71875 C 244.820312 36.453125 243.949219 36.886719 243.703125 37.675781 C 243.4375 38.464844 243.871094 39.316406 244.652344 39.582031 C 244.800781 39.636719 244.972656 39.660156 245.128906 39.660156 Z M 144.828125 37.808594 C 144.960938 37.808594 145.105469 37.78125 145.253906 37.746094 C 146.054688 37.515625 146.515625 36.671875 146.285156 35.875 C 146.054688 35.078125 145.210938 34.617188 144.414062 34.847656 C 143.613281 35.078125 143.152344 35.910156 143.382812 36.707031 C 143.570312 37.382812 144.171875 37.808594 144.828125 37.808594 Z M 238.640625 37.648438 C 239.296875 37.648438 239.898438 37.222656 240.085938 36.558594 C 240.316406 35.757812 239.855469 34.917969 239.046875 34.695312 C 238.25 34.464844 237.40625 34.925781 237.183594 35.734375 C 236.953125 36.53125 237.414062 37.375 238.222656 37.59375 C 238.355469 37.640625 238.496094 37.648438 238.640625 37.648438 Z M 151.382812 36.042969 C 151.507812 36.042969 151.621094 36.027344 151.746094 36 C 152.554688 35.796875 153.050781 34.980469 152.847656 34.171875 C 152.652344 33.363281 151.828125 32.867188 151.019531 33.074219 C 150.210938 33.265625 149.714844 34.09375 149.917969 34.898438 C 150.089844 35.582031 150.699219 36.042969 151.382812 36.042969 Z M 232.074219 35.910156 C 232.757812 35.910156 233.371094 35.449219 233.539062 34.765625 C 233.734375 33.949219 233.246094 33.132812 232.429688 32.9375 C 231.625 32.746094 230.808594 33.242188 230.613281 34.046875 C 230.410156 34.855469 230.90625 35.671875 231.710938 35.867188 C 231.835938 35.890625 231.953125 35.910156 232.074219 35.910156 Z M 158 34.542969 C 158.105469 34.542969 158.203125 34.535156 158.308594 34.519531 C 159.125 34.347656 159.648438 33.558594 159.488281 32.746094 C 159.320312 31.917969 158.523438 31.394531 157.707031 31.566406 C 156.890625 31.734375 156.367188 32.523438 156.527344 33.347656 C 156.667969 34.058594 157.308594 34.542969 158 34.542969 Z M 225.453125 34.4375 C 226.152344 34.4375 226.78125 33.941406 226.933594 33.222656 C 227.09375 32.40625 226.558594 31.617188 225.742188 31.449219 C 224.929688 31.28125 224.128906 31.8125 223.960938 32.628906 C 223.792969 33.453125 224.335938 34.242188 225.148438 34.410156 C 225.246094 34.421875 225.355469 34.4375 225.453125 34.4375 Z M 164.683594 33.320312 C 164.757812 33.320312 164.84375 33.3125 164.925781 33.292969 C 165.75 33.167969 166.308594 32.390625 166.167969 31.566406 C 166.035156 30.738281 165.261719 30.179688 164.4375 30.3125 C 164.4375 30.324219 164.4375 30.324219 164.4375 30.324219 C 163.613281 30.449219 163.054688 31.226562 163.1875 32.050781 C 163.3125 32.796875 163.949219 33.320312 164.683594 33.320312 Z M 218.765625 33.230469 C 219.5 33.230469 220.140625 32.699219 220.253906 31.953125 C 220.386719 31.140625 219.820312 30.367188 219.003906 30.234375 C 218.179688 30.101562 217.40625 30.667969 217.273438 31.476562 C 217.152344 32.308594 217.699219 33.074219 218.523438 33.214844 C 218.605469 33.222656 218.695312 33.230469 218.765625 33.230469 Z M 171.40625 32.363281 C 171.46875 32.363281 171.53125 32.363281 171.585938 32.355469 C 172.417969 32.246094 173.003906 31.503906 172.898438 30.667969 C 172.800781 29.835938 172.046875 29.25 171.222656 29.355469 C 170.386719 29.453125 169.800781 30.207031 169.898438 31.03125 C 169.996094 31.804688 170.652344 32.363281 171.40625 32.363281 Z M 212.042969 32.292969 C 212.796875 32.292969 213.445312 31.722656 213.53125 30.960938 C 213.628906 30.128906 213.042969 29.382812 212.210938 29.285156 C 211.378906 29.1875 210.632812 29.773438 210.535156 30.605469 C 210.4375 31.441406 211.023438 32.183594 211.855469 32.28125 C 211.925781 32.292969 211.980469 32.292969 212.042969 32.292969 Z M 178.15625 31.679688 C 178.191406 31.679688 178.234375 31.679688 178.28125 31.679688 C 179.113281 31.609375 179.726562 30.882812 179.664062 30.046875 C 179.59375 29.214844 178.875 28.601562 178.042969 28.664062 C 177.207031 28.734375 176.59375 29.453125 176.65625 30.296875 C 176.710938 31.078125 177.375 31.679688 178.15625 31.679688 Z M 205.285156 31.636719 C 206.066406 31.636719 206.722656 31.042969 206.785156 30.242188 C 206.855469 29.410156 206.234375 28.691406 205.398438 28.621094 C 204.566406 28.550781 203.839844 29.179688 203.777344 30.011719 C 203.707031 30.847656 204.328125 31.566406 205.160156 31.636719 C 205.214844 31.636719 205.25 31.636719 205.285156 31.636719 Z M 184.933594 31.261719 C 184.957031 31.261719 184.976562 31.261719 184.992188 31.261719 C 185.828125 31.238281 186.484375 30.527344 186.441406 29.695312 C 186.402344 28.859375 185.703125 28.210938 184.871094 28.257812 C 184.871094 28.246094 184.871094 28.246094 184.871094 28.246094 C 184.035156 28.285156 183.390625 28.984375 183.425781 29.828125 C 183.460938 30.625 184.125 31.261719 184.933594 31.261719 Z M 198.507812 31.238281 C 199.316406 31.238281 199.980469 30.605469 200.015625 29.792969 C 200.042969 28.957031 199.394531 28.257812 198.5625 28.230469 C 197.730469 28.195312 197.027344 28.851562 197 29.675781 C 196.976562 30.507812 197.621094 31.210938 198.449219 31.238281 C 198.472656 31.238281 198.492188 31.238281 198.507812 31.238281 Z M 191.726562 31.121094 C 192.558594 31.121094 193.234375 30.4375 193.234375 29.613281 C 193.234375 28.78125 192.550781 28.105469 191.726562 28.105469 C 190.890625 28.105469 190.21875 28.789062 190.21875 29.613281 C 190.207031 30.449219 190.890625 31.121094 191.726562 31.121094 Z M 191.714844 28.097656 C 191.726562 28.097656 191.726562 28.097656 191.714844 28.097656 C 191.726562 28.097656 191.726562 28.097656 191.714844 28.097656 Z M 193.207031 331.367188 L 193.207031 348.722656 L 193.222656 348.722656 Z M 199.246094 340.066406 L 200.65625 348.539062 L 199.246094 339.980469 L 199.246094 331.304688 L 197.808594 331.421875 L 199.246094 340.066406 L 199.246094 348.652344 Z M 187.191406 339.765625 L 185.863281 348.441406 L 187.191406 348.539062 Z M 205.257812 339.757812 L 206.667969 348.226562 L 205.257812 339.667969 L 205.257812 330.996094 L 203.820312 331.109375 L 205.257812 339.757812 L 205.257812 348.34375 Z M 181.191406 339.4375 L 182.414062 330.84375 L 181.171875 330.757812 L 181.171875 339.535156 L 179.957031 348.023438 L 181.171875 339.535156 L 181.171875 348.101562 Z M 212.484375 347.695312 L 211.246094 339.003906 L 211.246094 330.4375 L 211.246094 339.003906 L 210.03125 330.515625 L 211.246094 339.109375 L 211.246094 347.785156 Z M 175.390625 337.398438 L 176.5 330.1875 L 175.390625 337.398438 L 176.417969 330.171875 L 175.175781 338.753906 L 173.855469 347.332031 L 173.960938 347.347656 Z M 217.320312 338.925781 L 218.640625 346.863281 L 217.230469 338.332031 L 215.996094 329.71875 L 215.785156 329.753906 L 217.308594 338.914062 L 218.453125 346.898438 Z M 169.261719 337.71875 L 171.613281 329.488281 L 169.261719 337.71875 L 170.566406 329.257812 L 169.234375 337.832031 L 166.847656 346.179688 L 167.929688 346.417969 Z M 223.171875 337.328125 L 225.886719 345.476562 L 223.15625 337.25 L 221.929688 328.664062 L 220.394531 329.027344 L 223.171875 337.328125 L 224.386719 345.832031 Z M 163.355469 336.546875 L 165.707031 328.316406 L 163.355469 336.546875 L 164.660156 328.085938 L 163.328125 336.664062 L 160.941406 345.007812 L 162.023438 345.246094 Z M 231.429688 344.289062 L 229.007812 335.820312 L 230.453125 344.511719 Z M 157.476562 335.242188 L 160.03125 326.953125 L 158.777344 326.667969 L 157.449219 335.339844 L 154.929688 343.535156 L 157.449219 335.339844 L 156.144531 343.820312 Z M 234.96875 334.730469 L 237.601562 342.621094 L 234.871094 334.394531 L 232.484375 326.046875 L 232.113281 326.164062 L 234.96875 334.730469 L 237.253906 342.730469 Z M 154.230469 325.285156 L 149.128906 341.867188 L 149.148438 341.867188 Z M 243.367188 340.832031 L 240.519531 332.28125 L 242.992188 340.945312 Z M 145.992188 331.5625 L 149.582031 323.785156 L 145.992188 331.5625 L 148.507812 323.378906 L 145.945312 331.660156 L 142.3125 339.535156 L 143.410156 339.953125 Z M 187.183594 339.863281 L 187.203125 331.191406 Z M 246.355469 330.738281 L 249.699219 338.550781 L 246.292969 330.570312 L 243.550781 322.339844 L 242.859375 322.597656 L 246.355469 330.738281 L 249.042969 338.800781 Z M 140.304688 329.523438 L 143.941406 321.648438 L 143.039062 321.285156 L 140.253906 329.648438 L 136.671875 337.398438 L 140.246094 329.648438 L 137.546875 337.746094 Z M 255.746094 336.070312 L 251.824219 328.238281 L 254.230469 336.664062 Z M 226.667969 327.597656 L 229.035156 335.945312 Z M 134.761719 327.136719 L 138.648438 319.378906 L 137.308594 318.835938 L 134.726562 327.21875 L 130.886719 334.898438 L 134.726562 327.21875 L 132.199219 335.421875 Z M 261.207031 333.585938 L 253.441406 318.074219 L 261.199219 333.59375 Z M 237.875 324.371094 L 240.609375 332.609375 Z M 129.320312 324.53125 L 133.203125 316.761719 L 132.945312 316.636719 L 129.113281 324.949219 L 125.441406 332.28125 L 129.105469 324.957031 L 125.671875 332.398438 Z M 262.75 323.210938 L 267.496094 330.332031 L 262.699219 323.101562 L 258.824219 315.34375 L 257.875 315.894531 L 262.75 323.210938 L 266.574219 330.863281 Z M 124.050781 321.578125 L 128.796875 314.457031 L 124.050781 321.578125 L 127.871094 313.925781 L 123.980469 321.675781 L 119.164062 328.894531 L 120.113281 329.445312 Z M 247.984375 320.550781 L 251.851562 328.316406 Z M 268 320.273438 L 272.746094 327.394531 L 267.949219 320.167969 L 264.074219 312.40625 L 263.125 312.957031 L 268 320.273438 L 271.824219 327.925781 Z M 118.792969 318.632812 L 123.605469 311.414062 L 122.933594 311.007812 L 118.695312 318.777344 L 113.976562 325.851562 L 118.695312 318.777344 L 114.625 326.242188 Z M 277.882812 324.21875 L 272.898438 316.746094 L 268.597656 309.570312 L 272.898438 316.746094 L 268.257812 309.78125 L 273.058594 317.011719 L 277.515625 324.449219 Z M 113.71875 315.359375 L 118.816406 308.347656 L 117.585938 307.59375 L 113.664062 315.433594 L 108.621094 322.375 L 113.664062 315.433594 L 109.824219 323.113281 Z M 278.15625 313.78125 L 283.46875 320.417969 L 278.058594 313.632812 L 273.242188 306.414062 L 272.621094 306.863281 L 278.15625 313.78125 L 282.875 320.851562 Z M 113.886719 304.859375 L 103.679688 318.890625 L 103.6875 318.898438 Z M 288.320312 316.84375 L 282.792969 309.933594 L 278.078125 302.855469 L 282.792969 309.933594 L 277.480469 303.292969 L 282.890625 310.074219 L 287.707031 317.292969 Z M 104.070312 308.132812 L 110.136719 302.066406 L 104.070312 308.132812 L 109.117188 301.199219 L 104 308.203125 L 97.863281 314.339844 L 98.910156 315.238281 Z M 288.070312 306.882812 L 293.144531 312.964844 L 287.609375 306.304688 L 282.183594 299.511719 L 282.03125 299.628906 L 288.0625 306.855469 L 293.019531 313.054688 Z M 99.539062 304.152344 L 105.214844 297.90625 L 99.539062 304.152344 L 104.816406 297.5625 L 99.386719 304.328125 L 93.550781 310.75 L 93.976562 311.113281 Z M 298.269531 308.46875 L 292.035156 302.234375 L 297.542969 309.117188 Z M 94.9375 300.285156 L 101.074219 294.148438 L 100.34375 293.5 L 94.839844 300.382812 L 88.800781 306.421875 L 94.839844 300.382812 L 89.5 307.050781 Z M 302.640625 304.320312 L 296.40625 298.085938 L 291.078125 291.417969 L 296.40625 298.085938 L 290.367188 292.046875 L 296.496094 298.191406 L 301.914062 304.96875 Z M 292.125 302.34375 L 285.996094 296.195312 Z M 90.652344 296.046875 L 97.101562 290.238281 L 96.773438 289.890625 L 90.441406 296.222656 L 84.207031 301.835938 L 90.441406 296.222656 L 84.507812 302.15625 Z M 300.796875 293.960938 L 307.464844 299.292969 L 300.699219 293.863281 L 294.5625 287.726562 L 293.914062 288.453125 L 300.796875 293.960938 L 306.835938 300 Z M 92.992188 285.820312 L 80.097656 297.429688 L 80.109375 297.4375 Z M 311.492188 294.785156 L 304.132812 288.898438 L 298.046875 283.824219 L 304.132812 288.898438 L 297.949219 283.949219 L 304.71875 289.375 L 311.386719 294.929688 Z M 82.714844 286.992188 L 75.40625 291.859375 L 76.1875 292.863281 Z M 315.316406 290.121094 L 307.953125 284.234375 L 315.199219 290.273438 Z M 79.28125 282.023438 L 85.847656 277.101562 L 79.28125 282.023438 L 85.6875 276.898438 L 78.902344 282.308594 L 71.957031 287.515625 L 72.136719 287.734375 Z M 89.082031 281.253906 L 82.625 287.042969 Z M 319.386719 284.703125 L 312.015625 279.789062 L 318.925781 285.316406 Z M 308.53125 284.722656 L 301.761719 279.292969 Z M 75.363281 277.457031 L 82.609375 272.632812 L 82.492188 272.457031 L 74.867188 277.792969 L 68.171875 282.253906 L 74.839844 277.804688 L 68.269531 282.40625 Z M 304.949219 275.082031 L 312.15625 279.90625 Z M 315.855469 275.097656 L 323.03125 279.398438 L 315.605469 274.929688 L 308.378906 270.113281 L 308.148438 270.476562 L 315.855469 275.097656 L 322.816406 279.738281 Z M 72.0625 272.421875 L 79.558594 268.046875 L 78.832031 266.984375 L 71.976562 272.464844 L 64.570312 276.785156 L 71.976562 272.464844 L 65.28125 277.820312 Z M 318.914062 269.894531 L 326.558594 273.714844 L 318.808594 269.820312 L 311.589844 265.007812 L 311.039062 265.957031 L 318.914062 269.894531 L 326.027344 274.636719 Z M 69.164062 267.152344 L 61.191406 271.132812 L 61.464844 271.640625 Z M 329.582031 268.472656 L 321.71875 264.535156 L 329.035156 269.414062 Z M 76.453125 262.894531 L 68.953125 267.25 Z M 66.070312 261.992188 L 73.828125 258.105469 L 73.554688 257.601562 L 65.867188 262.089844 L 58.308594 265.867188 L 65.867188 262.089844 L 58.574219 266.34375 Z M 321.816406 264.609375 L 314.0625 260.714844 Z M 332.359375 263.117188 L 316.832031 255.375 L 332.351562 263.136719 Z M 63.605469 256.511719 L 71.417969 253.257812 L 63.605469 256.511719 L 71.175781 252.722656 L 63.410156 256.589844 L 55.402344 259.925781 L 55.65625 260.484375 Z M 327.234375 253.804688 L 335.5 256.164062 L 327.164062 253.769531 L 319.402344 249.894531 L 318.816406 251.402344 L 327.234375 253.804688 L 334.921875 257.644531 Z M 60.890625 251.144531 L 68.976562 247.773438 L 68.941406 247.679688 L 59.675781 251.652344 L 52.972656 254.445312 L 59.621094 251.675781 L 52.996094 254.515625 Z M 329.566406 248.238281 L 337.832031 250.59375 L 329.496094 248.199219 L 321.734375 244.324219 L 321.148438 245.832031 L 329.566406 248.238281 L 337.253906 252.078125 Z M 58.886719 245.46875 L 67.105469 243.121094 L 58.886719 245.46875 L 66.777344 242.179688 L 58.761719 245.503906 L 50.417969 247.890625 L 50.753906 248.855469 Z M 339.808594 245.273438 L 331.410156 242.472656 L 339.550781 245.957031 Z M 56.773438 239.828125 L 65.023438 237.082031 L 64.960938 236.894531 L 56.15625 240.042969 L 48.5625 242.570312 L 56.136719 240.042969 L 48.617188 242.730469 Z M 331.578125 242.542969 L 323.347656 239.785156 Z M 341.769531 239.183594 L 333.085938 236.699219 L 341.652344 239.554688 Z M 325.085938 234.410156 L 333.421875 236.804688 Z M 55.5 233.933594 L 63.472656 231.9375 L 55.5 233.933594 L 63.398438 231.671875 L 55.054688 234.039062 L 46.640625 236.140625 L 46.71875 236.433594 Z M 335.160156 231.023438 L 343.585938 232.425781 L 335.039062 230.988281 L 326.691406 228.601562 L 326.472656 229.578125 L 335.160156 231.023438 L 343.375 233.375 Z M 53.554688 228.21875 L 62.050781 226.402344 L 61.980469 226.101562 L 53.148438 228.308594 L 45.085938 230.039062 L 53.140625 228.316406 L 45.148438 230.3125 Z M 344.988281 226.347656 L 336.316406 225.109375 L 344.625 227.875 Z M 327.808594 223.894531 L 336.394531 225.132812 Z M 52.644531 222.253906 L 60.882812 220.878906 L 52.644531 222.253906 L 60.808594 220.503906 L 52.324219 222.304688 L 43.765625 223.734375 L 43.84375 224.140625 Z M 346.097656 220.425781 L 336.882812 219.113281 L 328.945312 217.792969 L 336.882812 219.113281 L 328.917969 217.976562 L 337.503906 219.21875 L 346.0625 220.648438 Z M 51.304688 216.382812 L 59.914062 215.148438 L 59.878906 214.9375 L 50.71875 216.460938 L 42.738281 217.605469 L 50.699219 216.46875 L 42.761719 217.792969 Z M 346.964844 214.464844 L 337.75 213.152344 L 329.8125 211.832031 L 337.75 213.152344 L 329.789062 212.019531 L 338.371094 213.257812 L 346.929688 214.6875 Z M 50.578125 210.402344 L 59.230469 209.785156 L 59.132812 208.957031 L 50.425781 210.414062 L 41.929688 211.015625 L 50.425781 210.414062 L 42.019531 211.8125 Z M 339.097656 207.253906 L 347.667969 207.253906 L 338.992188 207.238281 L 330.398438 206.015625 L 330.3125 207.253906 L 339.097656 207.253906 L 347.585938 208.472656 Z M 49.980469 204.398438 L 58.734375 203.78125 L 58.726562 203.664062 L 48.945312 204.480469 L 41.433594 205.019531 L 48.875 204.488281 L 41.441406 205.109375 Z M 348.039062 201.226562 L 339.277344 201.226562 L 347.921875 202.660156 Z M 339.367188 201.242188 L 330.691406 201.226562 Z M 49.824219 198.378906 L 58.496094 198.378906 L 58.46875 197.640625 L 49.644531 198.378906 L 41.148438 198.378906 L 49.644531 198.378906 L 41.175781 199.089844 Z M 348.164062 195.203125 L 330.808594 195.222656 L 348.164062 195.222656 Z M 348.164062 194.902344 L 330.808594 194.917969 L 348.164062 194.917969 Z M 50 192.347656 L 41.175781 191.613281 L 41.148438 192.347656 Z M 58.496094 192.347656 L 49.824219 192.332031 L 50 192.347656 Z M 339.453125 188.878906 L 348.03125 188.878906 L 339.453125 188.878906 L 347.933594 187.578125 L 339.355469 188.878906 L 330.683594 188.878906 L 330.78125 190.210938 Z M 58.734375 186.316406 L 49.847656 186.316406 L 41.40625 185.714844 L 49.847656 186.316406 L 41.386719 186.316406 L 50.0625 186.335938 L 58.71875 186.957031 Z M 330.382812 184.089844 L 338.976562 182.875 Z M 347.558594 181.644531 L 338.867188 182.886719 L 347.648438 182.886719 Z M 59.195312 180.945312 L 50.550781 180.3125 Z M 41.972656 178.992188 L 41.894531 179.710938 L 50.734375 180.339844 Z M 339.621094 176.695312 L 346.929688 175.648438 L 339.710938 176.675781 L 346.921875 175.570312 L 338.460938 176.855469 L 329.753906 178.097656 L 329.769531 178.203125 Z M 59.871094 175.558594 L 50 174.148438 L 42.699219 173.023438 L 49.9375 174.140625 L 42.691406 173.105469 L 51.1875 174.328125 L 59.851562 175.65625 Z M 337.457031 170.929688 L 346.050781 169.707031 L 346.035156 169.601562 L 336.121094 171.125 L 328.875 172.164062 L 336.121094 171.125 L 328.882812 172.242188 Z M 60.855469 169.609375 L 52.09375 168.359375 L 43.808594 166.445312 L 52.09375 168.351562 L 43.675781 167.144531 L 52.261719 168.386719 L 60.710938 170.335938 Z M 336.457031 164.980469 L 344.917969 163.675781 L 336.457031 164.980469 L 344.6875 162.628906 L 336.339844 165 L 327.765625 166.320312 L 328.003906 167.402344 Z M 61.980469 164.304688 L 52.597656 162.292969 L 45.042969 160.554688 L 52.570312 162.292969 L 45.015625 160.671875 L 53.457031 162.496094 L 61.945312 164.457031 Z M 334.96875 159.144531 L 343.550781 157.921875 L 343.25 156.582031 L 334.871094 159.164062 L 326.375 160.378906 L 334.871094 159.164062 L 326.664062 161.679688 Z M 63.433594 158.59375 L 54.78125 156.601562 L 46.683594 154.109375 L 54.78125 156.601562 L 46.53125 154.691406 L 54.984375 156.660156 L 63.277344 159.214844 Z M 341.636719 150.789062 L 341.636719 150.773438 L 325.050781 155.890625 Z M 56.910156 150.949219 L 64.988281 153.433594 L 56.703125 150.871094 L 48.609375 147.757812 L 48.402344 148.335938 L 56.910156 150.949219 L 64.800781 153.984375 Z M 331.589844 147.5625 L 339.773438 145.042969 L 331.589844 147.5625 L 339.367188 143.972656 L 331.480469 147.589844 L 323.191406 150.144531 L 323.605469 151.242188 Z M 66.964844 147.714844 L 58.460938 145.097656 L 50.566406 142.066406 L 58.460938 145.097656 L 50.382812 142.613281 L 58.664062 145.175781 L 66.761719 148.289062 Z M 329.46875 141.921875 L 337.46875 138.792969 L 337.265625 138.3125 L 329.824219 141.746094 L 337.148438 138.082031 L 329.59375 141.851562 L 321.308594 145.113281 L 321.511719 145.578125 L 321.503906 145.578125 L 321.511719 145.578125 L 321.628906 145.832031 Z M 68.96875 142.667969 L 60.882812 139.535156 Z M 319.296875 140.289062 L 327.066406 136.425781 Z M 53.113281 135.660156 L 52.765625 136.441406 L 61.015625 139.617188 Z M 71.40625 137.125 L 63.167969 133.957031 L 55.550781 130.144531 L 63.167969 133.957031 L 55.214844 130.898438 L 63.300781 134.03125 L 71.0625 137.914062 Z M 335.355469 133.871094 L 334.816406 132.53125 L 326.976562 136.449219 Z M 332.269531 127.09375 L 332.261719 127.085938 L 316.75 134.863281 Z M 66.183594 128.71875 L 73.742188 132.496094 L 65.988281 128.601562 L 58.496094 124.230469 L 58.222656 124.734375 L 66.183594 128.71875 L 73.472656 132.972656 Z M 321.824219 125.578125 L 329.476562 121.757812 L 321.824219 125.578125 L 328.945312 120.832031 L 321.71875 125.632812 L 313.957031 129.515625 L 314.507812 130.464844 Z M 76.632812 127.183594 L 68.667969 123.203125 L 61.378906 118.945312 L 68.667969 123.203125 L 61.121094 119.421875 L 68.871094 123.316406 L 76.367188 127.6875 Z M 311.5 125.230469 L 318.730469 120.433594 Z M 79.460938 122.507812 L 71.976562 118.128906 Z M 326.339844 116.273438 L 325.929688 115.601562 L 318.570312 120.503906 Z M 308.484375 120.433594 L 315.507812 115.34375 Z M 64.960938 113.03125 L 64.472656 113.773438 L 72.101562 118.21875 Z M 82.796875 117.464844 L 75.167969 113.019531 L 68.269531 108 L 75.160156 113.011719 L 67.796875 108.71875 L 75.285156 113.101562 L 82.296875 118.199219 Z M 319.101562 105.296875 L 319.09375 105.289062 L 305.070312 115.503906 Z M 323.269531 111.46875 L 322.515625 110.234375 L 315.429688 115.386719 Z M 79.027344 108.375 L 85.828125 113.320312 L 78.820312 108.207031 L 72.109375 102.707031 L 71.796875 103.105469 L 79.027344 108.375 L 85.535156 113.695312 Z M 308.519531 105.527344 L 315.457031 100.480469 L 308.519531 105.527344 L 314.585938 99.460938 L 308.441406 105.578125 L 301.425781 110.679688 L 302.324219 111.726562 Z M 89.320312 108.878906 L 81.5625 102.671875 L 75.824219 97.980469 L 81.5 102.625 L 75.769531 98.050781 L 82.449219 103.40625 L 89.25 108.96875 Z M 304.796875 100.78125 L 311.386719 95.503906 L 304.796875 100.78125 L 311.039062 95.105469 L 304.609375 100.933594 L 297.835938 106.351562 L 298.199219 106.777344 Z M 93.179688 104.375 L 86.21875 98.679688 L 80 93.085938 L 86.210938 98.671875 L 79.746094 93.378906 L 86.449219 98.875 L 92.894531 104.683594 Z M 300.609375 96.453125 L 294.464844 102.582031 Z M 90.660156 94.566406 L 97.003906 100.277344 L 90.5625 94.460938 L 84.765625 88.011719 L 84.109375 88.667969 L 90.660156 94.566406 L 96.371094 100.90625 Z M 296.601562 91.921875 L 302.535156 85.988281 L 296.601562 91.921875 L 302.214844 85.6875 L 296.40625 92.125 L 290.269531 98.261719 L 290.617188 98.589844 Z M 100.976562 96.355469 L 94.644531 90.023438 L 89.03125 83.789062 L 94.644531 90.023438 L 88.710938 84.09375 L 94.828125 90.238281 L 100.636719 96.683594 Z M 307.386719 91.035156 L 306.738281 90.308594 L 300.503906 96.542969 Z M 292.035156 87.984375 L 298.171875 81.847656 L 297.824219 81.519531 L 291.832031 88.179688 L 285.898438 94.113281 L 291.832031 88.179688 L 286.21875 94.414062 Z M 105.089844 92.613281 L 99.300781 86.160156 Z M 287.546875 83.941406 L 293.285156 77.574219 L 287.546875 83.941406 L 292.300781 76.8125 L 287.476562 84.019531 L 281.675781 90.46875 L 282.679688 91.25 Z M 109.390625 89.015625 L 103.910156 82.292969 Z M 283.070312 79.878906 L 288.195312 73.46875 L 283.070312 79.878906 L 287.992188 73.316406 L 282.777344 80.242188 L 277.347656 87.027344 L 277.570312 87.203125 Z M 93.800781 79.445312 L 93.480469 79.71875 L 99.503906 86.40625 Z M 103.574219 71.597656 L 103.566406 71.605469 L 113.78125 85.625 Z M 273.109375 83.898438 L 277.933594 76.6875 Z M 98.492188 75.515625 L 98.402344 75.585938 L 104.753906 83.339844 Z M 113.664062 75.269531 L 118.675781 82.167969 L 113.585938 75.144531 L 109.214844 67.648438 L 108.46875 68.136719 L 113.664062 75.269531 L 117.957031 82.628906 Z M 268.542969 80.800781 L 272.921875 73.316406 Z M 123.304688 79.1875 L 118.445312 71.550781 L 114.269531 64.386719 L 118.445312 71.542969 L 113.992188 64.546875 L 118.632812 71.863281 L 123.003906 79.363281 Z M 272.160156 62.667969 L 272.152344 62.65625 L 263.425781 77.652344 Z M 283.351562 69.910156 L 282.730469 69.460938 L 277.820312 76.828125 Z M 123.828125 68.8125 L 128.183594 76.316406 Z M 262.519531 67.214844 L 258.628906 74.964844 Z M 125.257812 58.222656 L 125.246094 58.230469 L 133.027344 73.742188 Z M 278.351562 66.542969 L 277.285156 65.8125 L 272.863281 73.398438 Z M 257.234375 64.253906 L 260.996094 56.722656 L 257.234375 64.253906 L 260.550781 56.519531 L 257.121094 64.484375 L 253.234375 72.242188 L 253.714844 72.464844 Z M 138.417969 71.136719 L 134.550781 63.367188 Z M 255.054688 54.027344 L 254.957031 53.992188 L 248.214844 69.984375 Z M 143.402344 69 L 139.863281 60.503906 L 136.9375 52.894531 L 139.855469 60.484375 L 136.722656 52.972656 L 140.039062 60.972656 L 143.160156 69.085938 Z M 119.945312 61.050781 L 119.4375 61.328125 L 123.925781 69.023438 Z M 246.132812 59.464844 L 249.359375 51.722656 L 246.132812 59.464844 L 248.953125 51.5625 L 246.027344 59.722656 L 242.691406 67.730469 L 243.125 67.898438 Z M 266.894531 59.722656 L 266.386719 59.445312 L 262.40625 67.410156 Z M 145.796875 59.144531 L 148.792969 66.941406 L 145.6875 58.835938 L 142.949219 50.605469 L 142.566406 50.746094 L 145.796875 59.144531 L 148.4375 67.066406 Z M 240.339844 57.71875 L 243.257812 49.550781 L 243.074219 49.488281 L 240.109375 58.375 L 237.421875 65.894531 L 240.109375 58.375 L 237.582031 65.949219 Z M 148.855469 48.628906 L 148.835938 48.628906 L 153.953125 65.210938 Z M 234.691406 55.5 L 236.953125 47.582031 L 234.691406 55.492188 L 236.6875 47.519531 L 234.566406 55.917969 L 232.183594 64.269531 L 232.476562 64.351562 Z M 157.191406 55.242188 L 159.726562 63.535156 Z M 131.4375 55.269531 L 130.65625 55.617188 L 134.605469 63.515625 Z M 228.757812 54.402344 L 226.921875 62.878906 Z M 163.042969 53.816406 L 164.976562 62.277344 Z M 222.925781 52.785156 L 224.671875 44.617188 L 222.925781 52.785156 L 224.296875 44.546875 L 222.863281 53.097656 L 221.042969 61.585938 L 221.453125 61.664062 Z M 170.769531 61.113281 L 168.898438 52.378906 L 167.621094 44.050781 L 168.898438 52.371094 L 167.132812 44.140625 L 168.933594 52.628906 L 170.253906 61.203125 Z M 215.695312 60.644531 L 216.9375 52.058594 Z M 176.222656 60.261719 L 174.707031 50.402344 L 173.660156 43.101562 L 174.6875 50.320312 L 173.582031 43.113281 L 174.867188 51.582031 L 176.109375 60.28125 Z M 210.988281 51.023438 L 212.175781 42.675781 L 210.988281 51.023438 L 211.6875 42.625 L 210.953125 51.261719 L 209.726562 59.855469 L 210.25 59.917969 Z M 182.210938 59.570312 L 180.863281 50.816406 L 180.257812 42.347656 L 180.863281 50.816406 L 179.566406 42.429688 L 180.871094 51.003906 L 181.492188 59.660156 Z M 204.964844 50.71875 L 204.335938 59.375 Z M 187.503906 59.214844 L 186.902344 50.5625 Z M 198.953125 50.417969 L 199.671875 41.773438 L 198.933594 41.746094 L 198.933594 50.597656 L 198.226562 59.066406 L 198.933594 50.597656 L 198.933594 59.09375 Z M 192.921875 41.691406 L 192.90625 41.691406 L 192.921875 59.046875 Z M 155.375 46.757812 L 154.628906 46.953125 L 157.226562 55.410156 Z M 161.226562 45.328125 L 161.074219 45.363281 L 163.238281 54.738281 Z M 231.5 46.171875 L 230.558594 45.914062 L 228.714844 54.535156 Z M 218.367188 43.5 L 218.152344 43.464844 L 216.839844 52.679688 Z M 205.683594 42.074219 L 205.570312 42.066406 L 204.867188 51.933594 Z M 186.902344 41.886719 L 186.269531 41.914062 L 186.902344 50.78125 Z M 186.902344 41.886719 " fill-opacity="1" fill-rule="nonzero"></path></g></g><g clip-path="url(#35b7bdf25e)"><path fill="#5d4fca" d="M 195.34375 48.0625 C 114.09375 48.0625 48.027344 114.132812 48.027344 195.378906 C 48.027344 250.753906 78.632812 300.964844 127.859375 326.347656 C 127.859375 326.347656 127.921875 326.347656 127.984375 326.410156 C 139.96875 332.738281 150.96875 335.933594 160.988281 335.933594 C 168.914062 335.933594 176.167969 333.90625 182.742188 329.910156 C 207.019531 315.160156 210.214844 278.777344 209.96875 258.375 C 209.847656 250.199219 203.210938 243.5625 195.035156 243.5625 L 194.851562 243.5625 C 186.554688 243.683594 179.976562 250.445312 180.039062 258.679688 C 180.285156 281.484375 175.308594 299.367188 167.195312 304.285156 C 160.617188 308.277344 149.742188 304.039062 141.75 299.734375 C 141.6875 299.734375 141.6875 299.675781 141.628906 299.675781 C 141.628906 299.675781 141.566406 299.675781 141.566406 299.613281 C 102.292969 279.394531 77.894531 239.382812 77.894531 195.257812 C 77.894531 130.539062 130.566406 77.871094 195.28125 77.871094 C 259.996094 77.871094 312.667969 130.539062 312.667969 195.257812 C 312.667969 218.671875 305.84375 241.105469 292.9375 260.402344 C 289.988281 254.871094 286.730469 245.652344 285.195312 241.164062 C 284.824219 240.058594 275.851562 213.507812 261.59375 186.589844 C 240.144531 146.027344 218.449219 126.300781 195.464844 126.300781 C 172.417969 126.300781 150.785156 146.027344 129.273438 186.589844 C 115.015625 213.507812 106.042969 239.996094 105.675781 241.164062 C 103.03125 248.972656 107.273438 257.453125 115.078125 260.09375 C 122.882812 262.738281 131.425781 258.496094 134.007812 250.691406 C 134.070312 250.445312 142.550781 225.433594 155.703125 200.601562 C 173.03125 167.90625 187.597656 156.230469 195.402344 156.230469 C 203.210938 156.230469 217.714844 167.785156 234.984375 200.296875 C 248.136719 225.0625 256.738281 250.445312 256.863281 250.816406 C 262.824219 268.085938 270.320312 289.535156 288.023438 292.851562 C 294.597656 294.082031 304.617188 293.097656 314.878906 281.113281 L 315.738281 280.007812 C 333.316406 255.117188 342.597656 225.800781 342.597656 195.195312 C 342.597656 114.132812 276.527344 48.0625 195.34375 48.0625 Z M 195.34375 48.0625 " fill-opacity="1" fill-rule="nonzero"></path></g><path fill="#5d4fca" d="M 180.347656 222.296875 C 180.347656 230.535156 187.046875 237.230469 195.28125 237.230469 C 203.515625 237.230469 210.214844 230.535156 210.214844 222.296875 C 210.214844 214.0625 203.515625 207.363281 195.28125 207.363281 C 187.046875 207.300781 180.347656 214 180.347656 222.296875 Z M 180.347656 222.296875 " fill-opacity="1" fill-rule="nonzero"></path></svg><style>@media (prefers-color-scheme: light) { :root { filter: none; } }
@media (prefers-color-scheme: dark) { :root { filter: none; } }
</style></svg>